<?xml version="1.0" standalone="no"?>
<!DOCTYPE svg PUBLIC "-//W3C//DTD SVG 20010904//EN"
 "http://www.w3.org/TR/2001/REC-SVG-20010904/DTD/svg10.dtd">
<svg version="1.0" xmlns="http://www.w3.org/2000/svg"
 width="1024.000000pt" height="1536.000000pt" viewBox="0 0 1024.000000 1536.000000"
 preserveAspectRatio="xMidYMid meet">

<g transform="translate(0.000000,1536.000000) scale(0.100000,-0.100000)"
fill="#000000" stroke="none">
<path d="M0 7680 l0 -7680 5120 0 5120 0 0 7680 0 7680 -5120 0 -5120 0 0
-7680z m9170 7480 c0 -5 -4 -10 -10 -10 -5 0 -10 5 -10 10 0 6 5 10 10 10 6 0
10 -4 10 -10z m-6060 -10 c0 -5 -4 -10 -10 -10 -5 0 -10 5 -10 10 0 6 5 10 10
10 6 0 10 -4 10 -10z m1485 -11 c0 -7 -8 -15 -17 -17 -18 -3 -25 18 -11 32 10
10 28 1 28 -15z m-3317 -62 c2 -10 -3 -17 -12 -17 -18 0 -29 16 -21 31 9 14
29 6 33 -14z m4947 -107 c3 -5 -1 -10 -9 -10 -9 0 -16 5 -16 10 0 6 4 10 9 10
6 0 13 -4 16 -10z m1013 -48 c-4 -22 -46 -28 -54 -8 -4 9 -1 23 6 31 16 19 53
1 48 -23z m832 23 c0 -8 -4 -15 -9 -15 -13 0 -22 16 -14 24 11 11 23 6 23 -9z
m1525 -130 c0 -30 -39 -27 -43 3 -3 20 0 23 20 20 15 -2 23 -10 23 -23z
m-6107 -18 c4 -20 -25 -34 -40 -19 -15 15 -1 44 19 40 10 -2 19 -11 21 -21z
m-488 -147 c0 -5 -4 -10 -10 -10 -5 0 -10 5 -10 10 0 6 5 10 10 10 6 0 10 -4
10 -10z m-2412 -77 c5 -18 -28 -29 -38 -12 -5 7 -6 17 -3 22 7 12 35 5 41 -10z
m3652 -29 c0 -19 -28 -30 -42 -16 -8 8 -8 15 1 26 14 17 41 10 41 -10z m1690
-13 c0 -6 -4 -13 -10 -16 -5 -3 -10 1 -10 9 0 9 5 16 10 16 6 0 10 -4 10 -9z
m-4025 -21 c3 -6 -1 -13 -10 -16 -19 -8 -30 0 -20 15 8 14 22 14 30 1z m7520
-16 c136 -22 277 -69 407 -136 65 -34 123 -67 129 -74 6 -8 -31 9 -82 36 -204
107 -421 157 -639 146 -164 -8 -389 -53 -376 -75 3 -5 -8 -11 -26 -15 -17 -3
-29 -9 -26 -12 4 -3 34 0 67 7 34 6 64 9 68 5 3 -3 -6 -6 -20 -6 -16 0 -27 -6
-27 -13 0 -8 -35 -25 -85 -42 -46 -15 -82 -32 -79 -36 3 -5 62 -9 132 -10 107
-1 120 -3 82 -11 -117 -24 -340 -80 -340 -85 0 -3 46 -3 103 0 l102 5 -70 -14
c-38 -8 -71 -18 -73 -24 -2 -5 -41 -21 -88 -36 -46 -14 -84 -28 -84 -31 0 -3
30 -2 68 2 71 8 101 9 109 2 9 -10 -39 -75 -60 -80 -12 -3 -49 -11 -82 -18
-76 -16 -45 -26 56 -19 38 3 69 3 69 -1 0 -3 -30 -12 -67 -19 -38 -8 -60 -16
-50 -18 9 -2 15 -7 13 -11 -3 -4 52 -13 122 -19 69 -7 130 -16 134 -20 5 -5
-42 -14 -104 -21 -62 -7 -114 -14 -117 -17 -2 -2 120 -4 272 -4 173 0 278 -4
282 -10 4 -6 -12 -10 -42 -10 -26 0 -113 -7 -193 -14 -80 -8 -197 -18 -260
-22 -115 -8 -115 -8 -65 -19 l50 -11 -35 -6 c-19 -4 -71 -12 -115 -18 -44 -6
-91 -14 -105 -17 -44 -11 41 -22 215 -28 88 -3 176 -9 195 -12 l35 -6 -30 -8
c-16 -5 -66 -12 -110 -15 -81 -7 -135 -22 -85 -25 l25 -1 -27 -8 c-15 -5 -68
-14 -118 -21 -132 -18 -121 -28 50 -49 46 -5 109 -10 139 -10 84 0 56 -8 -68
-20 -62 -6 -128 -17 -147 -25 -36 -15 -42 -21 -21 -23 6 -1 50 -7 97 -15 l85
-13 -70 -8 c-102 -10 -115 -15 -115 -40 0 -41 -21 -53 -117 -66 -51 -7 -93
-17 -93 -21 0 -5 10 -9 23 -10 21 0 21 -1 2 -9 -14 -5 6 -10 65 -16 l85 -8
-75 -9 c-98 -11 -124 -24 -128 -63 -5 -52 21 -65 160 -78 68 -7 130 -15 138
-19 8 -3 29 -8 45 -9 17 -2 -16 -7 -73 -12 -104 -8 -136 -20 -85 -32 15 -3 44
-10 63 -14 19 -5 98 -11 175 -14 168 -8 304 -18 290 -22 -5 -2 -107 -10 -225
-19 -190 -14 -245 -23 -229 -39 9 -10 136 -26 209 -27 66 -1 70 -2 35 -9 -22
-5 -94 -11 -160 -15 -147 -7 -193 -14 -176 -24 7 -5 -16 -11 -56 -16 -37 -4
-77 -10 -87 -14 -19 -7 -19 -8 -1 -15 25 -9 191 -25 290 -27 44 -1 67 -4 50
-6 -16 -2 -69 -13 -116 -23 -48 -11 -98 -20 -113 -20 -14 0 -26 -4 -26 -10 0
-6 29 -10 67 -10 62 0 66 -1 51 -16 -11 -12 -47 -18 -128 -24 -62 -5 -114 -11
-117 -13 -15 -15 164 -44 312 -50 57 -2 55 -3 -30 -10 -101 -9 -146 -17 -128
-24 7 -2 10 -10 8 -16 -6 -18 18 -45 51 -58 26 -10 27 -12 9 -18 -35 -14 30
-24 195 -30 l155 -6 -90 -9 c-49 -5 -184 -6 -298 -3 -147 3 -207 2 -204 -6 11
-33 96 -62 332 -114 l30 -6 -30 -7 c-16 -4 -48 -8 -70 -9 -45 -3 -31 -12 39
-27 22 -5 42 -15 44 -23 4 -11 -10 -12 -74 -7 -44 4 -88 10 -99 13 -47 13 12
-26 70 -46 l60 -20 -119 6 c-87 4 -117 3 -112 -5 26 -43 542 -132 769 -132 90
-1 108 -3 92 -12 -13 -8 -121 -14 -330 -17 l-310 -6 79 -20 c43 -10 72 -21 65
-24 -8 -3 9 -10 36 -17 38 -9 43 -12 22 -13 -18 -1 -27 -6 -25 -13 6 -19 51
-38 118 -50 33 -7 60 -16 60 -21 0 -5 -12 -6 -27 -3 -16 3 -93 8 -173 11 -139
4 -143 4 -100 -10 25 -9 90 -24 145 -35 134 -27 148 -30 144 -35 -2 -2 -42 3
-89 10 -89 15 -112 13 -64 -5 31 -12 152 -46 194 -54 14 -3 -13 -2 -60 0 -75
5 -83 4 -70 -9 20 -20 166 -70 270 -93 66 -15 125 -19 265 -18 206 0 298 16
458 80 170 68 284 142 426 279 76 72 86 79 51 36 -126 -154 -361 -308 -580
-379 -153 -50 -256 -66 -425 -65 -395 1 -745 138 -1014 398 -316 305 -470 720
-440 1185 42 638 504 1186 1124 1336 180 43 393 50 590 18z m-438 -110 c-3 -3
-12 -4 -19 -1 -8 3 -5 6 6 6 11 1 17 -2 13 -5z m-1807 -34 c0 -5 -4 -10 -10
-10 -5 0 -10 5 -10 10 0 6 5 10 10 10 6 0 10 -4 10 -10z m-1744 -95 c7 -18
-13 -45 -33 -45 -17 0 -27 24 -19 45 7 20 45 19 52 0z m-3248 -219 c342 -85
608 -341 707 -683 24 -81 25 -89 9 -100 -23 -16 -30 -10 -38 31 -10 51 -58
165 -105 244 -115 197 -313 350 -531 412 -104 29 -263 37 -365 17 -104 -20
-226 -67 -306 -119 -80 -51 -184 -137 -184 -152 0 -6 -9 -19 -20 -28 -11 -10
-17 -17 -13 -18 5 0 26 16 48 36 22 20 38 29 34 20 -3 -9 -4 -16 -2 -16 3 0
42 22 87 49 45 28 88 48 94 45 7 -2 49 9 95 26 122 44 123 36 1 -13 -122 -49
-180 -83 -310 -179 -114 -84 -122 -93 -89 -85 25 6 25 6 5 -11 -52 -44 -42
-49 24 -12 155 88 163 69 16 -36 -38 -28 -87 -61 -107 -73 -21 -13 -38 -24
-38 -27 0 -5 42 11 81 31 17 9 40 15 51 13 19 -3 19 -5 -8 -32 -29 -29 -29
-29 -4 -21 48 15 1 -24 -74 -62 -93 -47 -69 -54 28 -9 42 19 76 33 76 31 0 -2
-17 -16 -37 -30 -21 -14 -33 -25 -28 -25 5 0 -7 -11 -28 -25 -36 -25 -49 -42
-24 -32 93 37 117 46 117 42 0 -2 -12 -12 -27 -20 -24 -14 -25 -15 -6 -12 20
5 21 3 12 -15 -10 -18 -9 -20 5 -15 9 4 16 3 16 -1 0 -9 -34 -32 -80 -54 -49
-23 -16 -22 92 3 49 12 91 19 93 17 2 -2 -41 -23 -95 -47 -55 -24 -100 -47
-100 -51 0 -4 19 -4 43 0 23 3 53 3 67 -1 14 -4 21 -7 17 -8 -5 -1 -2 -8 6
-16 10 -10 27 -13 49 -10 32 5 32 5 -7 -10 -22 -8 -47 -18 -55 -21 -12 -4 -12
-6 0 -14 27 -17 -6 -54 -71 -80 -177 -70 26 -38 306 48 156 49 140 37 -105
-73 -52 -24 -115 -55 -140 -69 l-45 -27 69 7 c50 5 67 4 62 -5 -5 -7 -1 -9 8
-5 9 3 16 2 16 -3 0 -12 -108 -58 -185 -78 -47 -13 -48 -13 -15 -14 39 -1 210
36 344 75 48 14 90 23 93 21 2 -3 -29 -17 -69 -31 -40 -15 -80 -34 -89 -41 -8
-8 -33 -19 -55 -25 l-39 -10 39 5 c22 2 35 1 30 -4 -10 -9 -192 -61 -283 -82
-65 -14 -63 -16 -127 116 -170 348 -106 762 162 1053 155 168 351 274 569 306
58 8 271 -3 333 -18z m4397 -1 c0 -30 -39 -27 -43 3 -3 20 0 23 20 20 15 -2
23 -10 23 -23z m-1785 -15 c0 -5 -2 -10 -4 -10 -3 0 -8 5 -11 10 -3 6 -1 10 4
10 6 0 11 -4 11 -10z m-460 -130 c0 -5 -4 -10 -10 -10 -5 0 -10 5 -10 10 0 6
5 10 10 10 6 0 10 -4 10 -10z m-3704 -31 c10 -17 -13 -36 -27 -22 -12 12 -4
33 11 33 5 0 12 -5 16 -11z m6559 -8 c3 -5 1 -12 -5 -16 -5 -3 -10 1 -10 9 0
18 6 21 15 7z m-3760 -50 c103 -12 151 -28 190 -62 30 -27 35 -37 35 -75 0
-93 -99 -219 -295 -377 -369 -296 -920 -573 -1550 -780 -277 -91 -601 -171
-820 -202 -129 -19 -340 -19 -428 0 -113 24 -177 75 -177 142 0 72 114 210
270 327 86 64 272 186 285 186 3 0 5 -6 5 -12 0 -7 -28 -31 -61 -52 -146 -94
-311 -246 -360 -331 -69 -119 -18 -179 171 -205 157 -22 391 6 714 86 671 166
1425 510 1861 849 99 77 237 220 264 274 41 79 18 135 -67 168 -72 28 -367 25
-512 -5 -61 -13 -108 -18 -113 -13 -11 11 -3 14 153 46 107 22 247 40 340 43
14 1 57 -3 95 -7z m-103 -102 c59 -13 108 -54 108 -91 0 -58 -71 -152 -195
-256 -502 -422 -1597 -872 -2272 -934 -196 -18 -318 5 -359 68 -15 21 -15 31
-4 67 17 59 158 195 273 264 48 29 87 51 87 48 0 -3 -36 -40 -81 -82 -88 -85
-119 -133 -119 -188 0 -95 131 -126 379 -89 504 74 1198 338 1690 643 287 179
421 304 421 394 0 27 -31 71 -60 87 -37 20 -150 29 -242 19 -50 -5 -93 -7 -95
-5 -6 5 164 44 242 55 88 13 167 13 227 0z m1843 -208 c3 -5 1 -12 -5 -16 -5
-3 -10 1 -10 9 0 18 6 21 15 7z m-4937 -62 c-2 -6 -8 -10 -13 -10 -5 0 -11 4
-13 10 -2 6 4 11 13 11 9 0 15 -5 13 -11z m5643 -260 c19 -118 51 -148 185
-173 44 -7 66 -14 51 -15 -15 -1 -59 -8 -96 -17 -107 -24 -123 -51 -138 -229
l-7 -90 -12 80 c-25 172 -51 214 -142 234 -29 6 -66 11 -82 11 -57 0 -38 17
26 24 131 13 166 53 184 211 5 50 11 97 12 105 1 8 3 -5 5 -30 2 -25 8 -75 14
-111z m754 2 c7 -12 -12 -24 -25 -16 -11 7 -4 25 10 25 5 0 11 -4 15 -9z
m-2269 -222 c10 -17 -13 -36 -27 -22 -12 12 -4 33 11 33 5 0 12 -5 16 -11z
m-1534 -212 c-212 -516 -787 -741 -1272 -497 -43 22 -81 43 -84 48 -3 5 21 12
53 15 44 5 70 2 107 -12 77 -30 195 -51 286 -52 92 -1 91 -6 -3 -18 -62 -8
-61 -9 43 -10 58 0 140 5 181 13 274 53 516 250 638 520 25 56 41 78 59 85 14
4 26 7 28 6 2 -2 -14 -46 -36 -98z m948 34 c0 -14 -18 -23 -30 -16 -6 4 -8 11
-5 16 8 12 35 12 35 0z m1390 -31 c0 -5 -4 -10 -10 -10 -5 0 -10 5 -10 10 0 6
5 10 10 10 6 0 10 -4 10 -10z m2050 -180 c0 -5 -4 -10 -10 -10 -5 0 -10 5 -10
10 0 6 5 10 10 10 6 0 10 -4 10 -10z m-546 -133 c8 -12 7 -21 -6 -33 -22 -22
-48 -11 -48 20 0 37 34 45 54 13z m-2334 -347 c0 -5 -4 -10 -10 -10 -5 0 -10
5 -10 10 0 6 5 10 10 10 6 0 10 -4 10 -10z m788 -37 c-4 -22 -22 -20 -26 1 -2
10 3 16 13 16 10 0 15 -7 13 -17z m-4438 -264 c0 -5 -4 -9 -10 -9 -5 0 -10 7
-10 16 0 8 5 12 10 9 6 -3 10 -10 10 -16z m6628 -2 c2 -12 -3 -17 -17 -17 -12
0 -21 6 -21 13 0 31 32 34 38 4z m-662 -72 c3 -8 3 -19 -1 -25 -10 -16 -35 7
-28 26 7 18 22 18 29 -1z m-3956 -9 c0 -8 -5 -18 -11 -22 -14 -8 -33 11 -25
25 10 16 36 13 36 -3z m885 -376 c3 -5 1 -10 -4 -10 -6 0 -11 5 -11 10 0 6 2
10 4 10 3 0 8 -4 11 -10z m4915 -56 c0 -8 -4 -12 -10 -9 -5 3 -10 10 -10 16 0
5 5 9 10 9 6 0 10 -7 10 -16z m-2882 -12 c2 -7 -3 -12 -12 -12 -9 0 -16 7 -16
16 0 17 22 14 28 -4z m-3322 -23 c8 -14 -11 -33 -25 -25 -11 7 -4 36 9 36 5 0
12 -5 16 -11z m-1346 -19 c0 -5 -2 -10 -4 -10 -3 0 -8 5 -11 10 -3 6 -1 10 4
10 6 0 11 -4 11 -10z m2186 -71 c10 -17 -13 -36 -27 -22 -12 12 -4 33 11 33 5
0 12 -5 16 -11z m-2671 -9 c4 -6 1 -18 -6 -26 -11 -13 -14 -13 -27 0 -8 8 -11
19 -8 25 9 14 33 14 41 1z m7350 -10 c3 -5 1 -10 -4 -10 -6 0 -11 5 -11 10 0
6 2 10 4 10 3 0 8 -4 11 -10z m-830 -139 c-200 -99 -324 -177 -434 -275 -41
-36 -79 -66 -85 -66 -6 0 -30 9 -53 20 -24 10 -45 15 -47 11 -3 -4 13 -28 34
-53 l39 -45 -40 -12 c-62 -19 -182 -141 -199 -203 -11 -42 -10 -51 4 -72 30
-47 20 -56 -31 -29 -36 18 -59 23 -91 20 -91 -10 -167 -95 -160 -181 l3 -43
-130 -120 c-71 -67 -176 -171 -232 -231 -93 -100 -121 -142 -93 -142 6 0 10
-7 10 -16 0 -20 -39 -15 -53 7 -8 13 -3 39 17 100 81 242 230 467 443 670 247
234 513 411 866 576 164 77 384 171 402 172 6 0 -71 -39 -170 -88z m-2255 44
c0 -8 -7 -15 -15 -15 -8 0 -15 7 -15 15 0 8 7 15 15 15 8 0 15 -7 15 -15z
m-634 -16 c10 -17 -13 -36 -27 -22 -12 12 -4 33 11 33 5 0 12 -5 16 -11z
m5884 -23 c0 -11 -19 -15 -25 -6 -3 5 1 10 9 10 9 0 16 -2 16 -4z m-2670 -112
c0 -8 -5 -12 -10 -9 -6 4 -8 11 -5 16 9 14 15 11 15 -7z m-5450 -47 c0 -8 -3
-17 -7 -20 -9 -9 -34 13 -27 24 8 14 34 11 34 -4z m7278 -70 c4 -20 -25 -34
-40 -19 -15 15 -1 44 19 40 10 -2 19 -11 21 -21z m-5672 -158 c10 -17 -13 -36
-27 -22 -12 12 -4 33 11 33 5 0 12 -5 16 -11z m3608 -10 c-3 -5 -10 -7 -15 -3
-5 3 -7 10 -3 15 3 5 10 7 15 3 5 -3 7 -10 3 -15z m-6060 -168 c16 -17 54 -29
141 -44 11 -2 -2 -7 -30 -11 -106 -17 -133 -45 -142 -149 -7 -69 -14 -66 -24
10 -12 90 -44 119 -154 139 l-40 7 54 8 c101 14 130 46 139 159 l6 65 16 -82
c9 -45 24 -91 34 -102z m1506 139 c0 -5 -4 -10 -10 -10 -5 0 -10 5 -10 10 0 6
5 10 10 10 6 0 10 -4 10 -10z m4020 -117 c-79 -147 -131 -215 -279 -363 -133
-133 -295 -263 -436 -351 -38 -24 -73 -48 -77 -54 -4 -5 -8 -37 -8 -70 l0 -61
-87 -79 c-108 -100 -202 -175 -217 -175 -6 0 -1 8 11 18 12 9 76 64 141 122
128 113 131 117 132 220 1 45 1 45 73 90 148 91 314 226 452 364 150 150 240
262 301 375 21 38 40 68 42 66 3 -2 -19 -48 -48 -102z m1860 57 c0 -5 -4 -10
-10 -10 -5 0 -10 5 -10 10 0 6 5 10 10 10 6 0 10 -4 10 -10z m-3620 -171 c0
-24 -23 -21 -28 4 -2 10 3 17 12 17 10 0 16 -9 16 -21z m3255 -39 c-5 -8 -11
-8 -17 -2 -6 6 -7 16 -3 22 5 8 11 8 17 2 6 -6 7 -16 3 -22z m-4123 -95 c0 -5
-5 -11 -11 -13 -6 -2 -11 4 -11 13 0 9 5 15 11 13 6 -2 11 -8 11 -13z m2193
-5 c20 -23 23 -63 5 -85 -15 -18 -91 -20 -108 -3 -17 17 -15 59 4 86 20 29 74
30 99 2z m3723 -3 c2 -10 -3 -17 -12 -17 -18 0 -29 16 -21 31 9 14 29 6 33
-14z m-6768 -37 c0 -5 -4 -10 -10 -10 -5 0 -10 5 -10 10 0 6 5 10 10 10 6 0
10 -4 10 -10z m-2612 -23 c2 -12 -3 -17 -17 -17 -12 0 -21 6 -21 13 0 31 32
34 38 4z m8497 3 c0 -22 -29 -18 -33 3 -3 14 1 18 15 15 10 -2 18 -10 18 -18z
m-6528 -126 c7 -18 -17 -38 -31 -24 -11 11 -1 40 14 40 6 0 13 -7 17 -16z
m-739 -25 c-2 -6 -8 -10 -13 -10 -5 0 -11 4 -13 10 -2 6 4 11 13 11 9 0 15 -5
13 -11z m5582 -164 c0 -8 -4 -15 -9 -15 -13 0 -22 16 -14 24 11 11 23 6 23 -9z
m-1786 -6 c4 -4 -32 -104 -49 -137 -1 -1 -16 3 -34 9 -44 15 -68 7 -160 -55
-45 -30 -81 -51 -81 -47 0 10 72 114 125 180 l50 62 72 -3 c39 -2 74 -6 77 -9z
m-1104 -114 c0 -8 -7 -15 -15 -15 -8 0 -15 7 -15 15 0 8 7 15 15 15 8 0 15 -7
15 -15z m941 -44 c-35 -26 -81 -53 -81 -47 0 6 91 66 100 66 3 0 -6 -9 -19
-19z m352 -123 c-60 -64 -206 -192 -195 -172 6 11 19 27 28 35 25 21 44 73 44
123 l0 44 73 40 72 40 3 -40 c3 -33 -2 -46 -25 -70z m-443 67 c0 -2 -10 -9
-22 -15 -22 -11 -22 -10 -4 4 21 17 26 19 26 11z m3480 -21 c0 -8 -7 -14 -15
-14 -15 0 -21 21 -9 33 10 9 24 -2 24 -19z m-3431 -76 c-80 -95 -138 -183
-151 -233 -13 -46 21 -18 -428 -356 -420 -316 -534 -396 -340 -239 36 29 155
135 265 235 412 375 412 375 448 368 30 -6 31 -5 18 11 -15 18 -53 18 -96 1
-57 -23 222 223 300 263 22 12 41 21 43 22 1 0 -26 -33 -59 -72z m111 47 c0
-18 7 -28 27 -36 l26 -10 -53 -54 c-37 -37 -73 -62 -114 -79 -69 -27 -79 -20
-50 36 18 35 141 168 156 168 4 0 8 -11 8 -25z m-5150 -5 c0 -5 -4 -10 -10
-10 -5 0 -10 5 -10 10 0 6 5 10 10 10 6 0 10 -4 10 -10z m3470 -16 c0 -8 -5
-12 -10 -9 -6 4 -8 11 -5 16 9 14 15 11 15 -7z m-2460 -39 c0 -8 -4 -15 -10
-15 -5 0 -10 7 -10 15 0 8 5 15 10 15 6 0 10 -7 10 -15z m1842 -70 c0 -5 -5
-11 -11 -13 -6 -2 -11 4 -11 13 0 9 5 15 11 13 6 -2 11 -8 11 -13z m2308 -31
c-41 -41 -186 -156 -252 -199 -34 -21 -34 -14 -6 62 24 62 33 74 55 66 23 -9
139 39 189 78 64 50 67 49 14 -7z m1187 20 c3 -8 1 -20 -6 -27 -14 -14 -47 15
-37 32 10 16 36 13 43 -5z m-4696 -117 c-13 -13 -26 -3 -16 12 3 6 11 8 17 5
6 -4 6 -10 -1 -17z m7941 -49 c-9 -9 -15 -9 -23 -1 -7 7 -9 20 -5 29 6 16 8
16 23 1 13 -13 15 -19 5 -29z m-1927 23 c3 -5 1 -12 -5 -16 -5 -3 -10 1 -10 9
0 18 6 21 15 7z m-7184 -34 c-1 -12 -15 -9 -19 4 -3 6 1 10 8 8 6 -3 11 -8 11
-12z m6449 -312 c14 -88 41 -148 75 -171 36 -24 111 -42 230 -57 84 -10 92
-12 50 -15 -143 -7 -263 -40 -299 -83 -30 -35 -53 -134 -71 -297 -7 -64 -13
-97 -14 -72 -2 67 -29 248 -46 305 -15 53 -41 83 -88 103 -38 16 -187 42 -251
43 -38 1 -23 5 59 15 197 25 259 59 285 155 14 51 39 237 41 304 1 28 5 5 10
-55 4 -58 13 -136 19 -175z m1626 124 c10 -17 -13 -36 -27 -22 -12 12 -4 33
11 33 5 0 12 -5 16 -11z m-4686 -95 c0 -8 -5 -12 -10 -9 -6 4 -8 11 -5 16 9
14 15 11 15 -7z m-820 -115 c0 -5 -4 -9 -10 -9 -5 0 -10 7 -10 16 0 8 5 12 10
9 6 -3 10 -10 10 -16z m-796 -41 c8 -14 7 -21 -6 -34 -30 -30 -75 9 -48 42 16
18 39 15 54 -8z m-1304 -9 c0 -5 -7 -9 -15 -9 -15 0 -20 12 -9 23 8 8 24 -1
24 -14z m4400 -9 c0 -11 -4 -20 -9 -20 -14 0 -23 18 -16 30 10 17 25 11 25
-10z m4370 -190 c0 -5 -5 -10 -11 -10 -5 0 -7 5 -4 10 3 6 8 10 11 10 2 0 4
-4 4 -10z m-8170 -166 c0 -8 -4 -12 -10 -9 -5 3 -10 10 -10 16 0 5 5 9 10 9 6
0 10 -7 10 -16z m6396 -31 c-10 -10 -19 5 -10 18 6 11 8 11 12 0 2 -7 1 -15
-2 -18z m-2228 -47 c3 -12 -1 -17 -10 -14 -7 3 -15 13 -16 22 -3 12 1 17 10
14 7 -3 15 -13 16 -22z m3442 -36 c0 -11 -7 -20 -15 -20 -8 0 -15 2 -15 4 0 2
-3 11 -6 20 -4 12 0 16 15 16 14 0 21 -6 21 -20z m-9122 -37 c-2 -10 -10 -18
-18 -18 -8 0 -16 8 -18 18 -2 12 3 17 18 17 15 0 20 -5 18 -17z m2802 7 c0 -5
-7 -10 -15 -10 -8 0 -15 5 -15 10 0 6 7 10 15 10 8 0 15 -4 15 -10z m5680 -20
c0 -5 -2 -10 -4 -10 -3 0 -8 5 -11 10 -3 6 -1 10 4 10 6 0 11 -4 11 -10z
m-4970 -150 c0 -5 -4 -10 -10 -10 -5 0 -10 5 -10 10 0 6 5 10 10 10 6 0 10 -4
10 -10z m-3120 -35 c0 -8 -4 -15 -9 -15 -13 0 -22 16 -14 24 11 11 23 6 23 -9z
m470 -5 c0 -11 -6 -20 -14 -20 -18 0 -29 16 -21 30 11 18 35 11 35 -10z m3305
-75 c0 -23 -34 -33 -45 -14 -13 20 1 40 24 37 13 -2 21 -10 21 -23z m1180 -96
c0 -7 -8 -15 -17 -17 -18 -3 -25 18 -11 32 10 10 28 1 28 -15z m-3125 -164 c0
-8 -4 -15 -9 -15 -13 0 -22 16 -14 24 11 11 23 6 23 -9z m5250 -55 c0 -5 -2
-10 -4 -10 -3 0 -8 5 -11 10 -3 6 -1 10 4 10 6 0 11 -4 11 -10z m-5995 -29
c661 -136 966 -871 592 -1426 -87 -128 -221 -246 -357 -315 -550 -276 -1181 2
-1342 591 -20 72 -23 108 -23 244 0 179 15 252 79 390 75 162 207 311 354 399
87 52 241 109 332 125 97 16 268 12 365 -8z m6860 -31 c0 -22 -29 -18 -33 3
-3 14 1 18 15 15 10 -2 18 -10 18 -18z m1065 10 c0 -5 -4 -10 -10 -10 -5 0
-10 5 -10 10 0 6 5 10 10 10 6 0 10 -4 10 -10z m-9160 -20 c0 -5 -4 -10 -10
-10 -5 0 -10 5 -10 10 0 6 5 10 10 10 6 0 10 -4 10 -10z m3058 -13 c2 -10 -3
-17 -12 -17 -18 0 -29 16 -21 31 9 14 29 6 33 -14z m1618 -108 c10 -17 -13
-36 -27 -22 -12 12 -4 33 11 33 5 0 12 -5 16 -11z m-1046 -163 c0 -8 -4 -17
-9 -21 -12 -7 -24 12 -16 25 9 15 25 12 25 -4z m3133 -141 c1 -5 -6 -11 -15
-13 -11 -2 -18 3 -18 13 0 17 30 18 33 0z m1024 -130 c7 -20 -2 -29 -21 -22
-9 4 -13 13 -10 22 8 19 23 19 31 0z m-1969 -51 c32 -22 28 -42 -22 -105 -43
-54 -266 -259 -283 -259 -4 0 31 37 78 83 47 45 109 112 138 150 29 37 56 67
61 67 4 0 10 9 13 20 3 11 3 20 -1 20 -3 0 -48 -23 -100 -50 -119 -64 -203
-126 -196 -144 7 -19 -301 -253 -554 -421 -56 -38 -101 -70 -98 -72 2 -2 95
39 206 92 112 52 205 93 207 91 6 -6 -351 -183 -398 -198 -34 -10 -42 -9 -56
5 -15 15 -9 24 83 115 114 113 309 262 574 437 206 136 288 185 310 185 9 0
26 -7 38 -16z m3422 -106 c0 -15 -32 -21 -40 -7 -13 20 9 43 26 28 8 -6 14
-16 14 -21z m-6630 -8 c0 -5 -2 -10 -4 -10 -3 0 -8 5 -11 10 -3 6 -1 10 4 10
6 0 11 -4 11 -10z m1855 -90 c-5 -8 -11 -8 -17 -2 -6 6 -7 16 -3 22 5 8 11 8
17 2 6 -6 7 -16 3 -22z m1771 -157 c-10 -10 -19 5 -10 18 6 11 8 11 12 0 2 -7
1 -15 -2 -18z m-2686 -73 c0 -5 -4 -10 -10 -10 -5 0 -10 5 -10 10 0 6 5 10 10
10 6 0 10 -4 10 -10z m3520 -40 c0 -5 -4 -10 -10 -10 -5 0 -10 5 -10 10 0 6 5
10 10 10 6 0 10 -4 10 -10z m1350 -65 c0 -8 -4 -15 -10 -15 -5 0 -10 7 -10 15
0 8 5 15 10 15 6 0 10 -7 10 -15z m-8660 -255 c0 -5 -4 -10 -10 -10 -5 0 -10
5 -10 10 0 6 5 10 10 10 6 0 10 -4 10 -10z m9772 -42 c-6 -6 -15 -9 -18 -5 -4
3 -4 14 0 23 5 13 9 15 18 6 9 -9 9 -15 0 -24z m-1867 -168 c0 -18 -6 -26 -23
-28 -24 -4 -38 18 -28 44 3 9 15 14 28 12 17 -2 23 -10 23 -28z m-4681 -146
c22 -32 47 -44 109 -51 l52 -6 -58 -14 c-32 -7 -67 -18 -78 -24 -29 -15 -49
-69 -49 -129 0 -67 -16 -64 -24 4 -12 107 -31 127 -137 149 l-64 13 56 6 c65
7 114 29 129 59 6 11 14 52 18 92 l6 72 12 -73 c7 -41 20 -85 28 -98z m776
110 c0 -8 -7 -14 -15 -14 -15 0 -21 21 -9 33 10 9 24 -2 24 -19z m2980 16 c0
-5 -2 -10 -4 -10 -3 0 -8 5 -11 10 -3 6 -1 10 4 10 6 0 11 -4 11 -10z m-1165
-110 c3 -5 1 -10 -4 -10 -6 0 -11 5 -11 10 0 6 2 10 4 10 3 0 8 -4 11 -10z
m775 -39 c0 -6 -4 -13 -10 -16 -5 -3 -10 1 -10 9 0 9 5 16 10 16 6 0 10 -4 10
-9z m-4035 -21 c3 -5 1 -10 -4 -10 -6 0 -11 5 -11 10 0 6 2 10 4 10 3 0 8 -4
11 -10z m6700 -15 c0 -30 -39 -27 -43 3 -3 20 0 23 20 20 15 -2 23 -10 23 -23z
m-4395 -100 c0 -8 -4 -15 -10 -15 -5 0 -10 7 -10 15 0 8 5 15 10 15 6 0 10 -7
10 -15z m3720 -45 c0 -5 -4 -10 -10 -10 -5 0 -10 5 -10 10 0 6 5 10 10 10 6 0
10 -4 10 -10z m-8173 -116 c8 -21 -13 -42 -28 -27 -13 13 -5 43 11 43 6 0 13
-7 17 -16z m-462 -84 c-3 -5 -10 -10 -16 -10 -5 0 -9 5 -9 10 0 6 7 10 16 10
8 0 12 -4 9 -10z m6225 -15 c0 -8 -4 -15 -10 -15 -5 0 -10 7 -10 15 0 8 5 15
10 15 6 0 10 -7 10 -15z m-1650 -129 c0 -8 -5 -18 -11 -22 -14 -8 -33 11 -25
25 10 16 36 13 36 -3z m-2272 -38 c-6 -18 -28 -21 -28 -4 0 9 7 16 16 16 9 0
14 -5 12 -12z m-668 -28 c0 -5 -4 -10 -10 -10 -5 0 -10 5 -10 10 0 6 5 10 10
10 6 0 10 -4 10 -10z m6165 -81 c170 -21 346 -84 502 -181 118 -72 292 -243
371 -365 58 -89 114 -208 127 -268 3 -17 -4 -6 -18 25 -74 169 -159 294 -278
404 -167 155 -363 252 -590 292 -109 19 -347 14 -414 -8 -40 -13 -39 -13 60
-18 95 -5 97 -5 45 -12 -93 -12 -290 -62 -287 -73 2 -5 48 -12 103 -15 96 -5
97 -5 39 -11 -152 -17 -306 -58 -217 -59 24 -1 25 -2 10 -14 -22 -16 -6 -36
32 -37 39 -2 -45 -27 -95 -29 -36 -1 -38 -2 -22 -14 17 -13 15 -15 -22 -21
-49 -8 -54 -25 -8 -26 l32 -1 -30 -8 c-22 -6 -7 -8 55 -10 133 -3 151 -15 35
-23 -55 -4 -126 -7 -157 -7 -32 0 -58 -4 -58 -10 0 -5 24 -10 53 -11 28 0 61
-4 72 -9 l20 -9 -20 0 c-16 -1 -17 -3 -5 -11 23 -14 6 -22 -65 -27 -80 -7 -96
-23 -23 -24 76 -1 32 -17 -49 -18 -35 -1 -63 -5 -63 -10 0 -5 42 -15 93 -24
78 -12 85 -15 44 -16 -40 -1 -49 -5 -58 -25 -6 -13 -20 -27 -31 -29 -19 -5
-19 -7 -3 -31 10 -14 25 -26 34 -26 9 0 23 -5 31 -10 10 -7 -22 -8 -95 -5
l-110 5 40 -19 c49 -24 174 -41 305 -42 124 0 96 -10 -117 -40 -162 -22 -170
-24 -135 -35 35 -11 32 -12 -50 -13 -48 -1 -90 -5 -93 -11 -4 -6 6 -10 22 -10
15 0 63 -9 107 -20 43 -11 95 -20 115 -21 20 -1 47 -4 61 -8 27 -7 -123 -31
-198 -31 -56 0 -65 -20 -10 -21 l43 -1 -60 -13 c-33 -8 -84 -14 -114 -14 -71
-1 -60 -10 31 -25 l73 -13 -52 -7 c-29 -5 -53 -12 -53 -16 0 -9 126 -40 164
-40 14 0 27 -4 30 -9 3 -5 -33 -14 -82 -20 -159 -21 -161 -23 -37 -54 61 -15
142 -31 180 -36 l70 -8 -105 -3 c-96 -2 -102 -3 -68 -14 l38 -11 -30 -13 c-17
-8 -30 -20 -30 -27 0 -17 -18 -22 -110 -31 l-75 -8 60 -18 c33 -10 116 -24
185 -31 112 -11 120 -13 75 -19 -27 -3 -76 -7 -108 -7 -36 -1 -56 -5 -52 -11
4 -6 -18 -10 -60 -10 -36 0 -64 -4 -61 -9 3 -4 33 -14 66 -22 103 -23 71 -38
-85 -40 l-100 -2 108 -12 c59 -7 110 -15 114 -19 3 -3 -36 -6 -88 -7 l-94 -1
60 -13 c33 -8 98 -17 145 -21 88 -8 84 -19 -10 -25 l-45 -2 50 -6 c43 -6 33
-8 -65 -14 -63 -4 -140 -10 -170 -13 l-55 -5 -37 93 c-71 184 -97 353 -79 522
49 454 334 841 741 1009 208 86 393 112 605 86z m1822 -105 c8 -21 -13 -42
-28 -27 -13 13 -5 43 11 43 6 0 13 -7 17 -16z m-8597 -50 c0 -8 -7 -14 -15
-14 -15 0 -21 21 -9 33 10 9 24 -2 24 -19z m4580 -34 c0 -5 -5 -10 -11 -10 -5
0 -7 5 -4 10 3 6 8 10 11 10 2 0 4 -4 4 -10z m-1690 -21 c0 -5 -7 -9 -15 -9
-15 0 -20 12 -9 23 8 8 24 -1 24 -14z m-1280 -154 c0 -8 -7 -15 -15 -15 -8 0
-15 7 -15 15 0 8 7 15 15 15 8 0 15 -7 15 -15z m-770 -35 c0 -5 -2 -10 -4 -10
-3 0 -8 5 -11 10 -3 6 -1 10 4 10 6 0 11 -4 11 -10z m2716 -175 c3 -8 3 -19
-1 -25 -10 -16 -35 7 -28 26 7 18 22 18 29 -1z m-1461 -15 c0 -8 -8 -16 -17
-18 -13 -2 -18 3 -18 18 0 15 5 20 18 18 9 -2 17 -10 17 -18z m2844 -99 c13
-24 -8 -55 -35 -49 -20 3 -30 29 -20 54 8 20 43 17 55 -5z m3307 -6 c282 -49
330 -181 137 -372 -415 -411 -1676 -822 -2738 -894 -465 -31 -851 29 -945 148
-87 111 56 291 347 437 109 54 263 119 269 113 3 -2 -21 -15 -53 -27 -237 -95
-435 -234 -487 -344 -57 -120 45 -203 309 -252 136 -25 561 -26 780 0 372 42
618 86 930 166 801 204 1424 502 1599 764 19 29 26 52 26 89 0 45 -4 54 -39
87 -52 50 -147 79 -287 89 l-109 8 86 2 c48 0 126 -6 175 -14z m-4136 -25 c0
-5 -5 -10 -11 -10 -5 0 -7 5 -4 10 3 6 8 10 11 10 2 0 4 -4 4 -10z m-5070 -20
c0 -5 -4 -10 -10 -10 -5 0 -10 5 -10 10 0 6 5 10 10 10 6 0 10 -4 10 -10z
m830 -61 c0 -24 -23 -21 -28 4 -2 10 3 17 12 17 10 0 16 -9 16 -21z m8233 -19
c177 -55 134 -188 -112 -350 -167 -110 -473 -252 -756 -350 -569 -197 -1366
-336 -1810 -316 -264 11 -388 47 -448 128 -56 76 52 199 273 310 103 52 113
48 15 -6 -132 -72 -195 -138 -197 -206 -3 -107 162 -160 501 -160 367 1 750
56 1246 182 632 159 1161 409 1287 607 54 86 25 145 -87 172 -29 7 -29 7 -4 8
15 1 56 -8 92 -19z m-6712 -126 c79 -24 119 -47 182 -104 263 -241 159 -649
-192 -756 -67 -21 -207 -18 -274 5 -311 107 -394 510 -153 745 111 107 292
153 437 110z m-1060 -137 c-1 -12 -15 -9 -19 4 -3 6 1 10 8 8 6 -3 11 -8 11
-12z m3199 -27 c0 -5 -4 -10 -10 -10 -5 0 -10 5 -10 10 0 6 5 10 10 10 6 0 10
-4 10 -10z m5226 -1 c10 -17 -13 -36 -27 -22 -12 12 -4 33 11 33 5 0 12 -5 16
-11z m-5656 -84 c0 -14 -4 -25 -10 -25 -11 0 -14 33 -3 43 11 11 13 8 13 -18z
m-3967 -130 c1 -5 -6 -11 -15 -13 -11 -2 -18 3 -18 13 0 17 30 18 33 0z m6784
-21 c-3 -3 -12 -4 -19 -1 -8 3 -5 6 6 6 11 1 17 -2 13 -5z m-3629 -47 c2 -10
-3 -17 -12 -17 -18 0 -29 16 -21 31 9 14 29 6 33 -14z m1862 -32 c13 -16 6
-35 -15 -35 -18 0 -28 17 -21 35 7 19 20 19 36 0z m-4400 -95 c0 -5 -4 -10
-10 -10 -5 0 -10 5 -10 10 0 6 5 10 10 10 6 0 10 -4 10 -10z m8952 -45 c0 -5
-5 -11 -11 -13 -6 -2 -11 4 -11 13 0 9 5 15 11 13 6 -2 11 -8 11 -13z m-928
-106 c-128 -357 -398 -620 -749 -728 -133 -40 -205 -51 -355 -51 -304 0 -549
89 -780 285 -61 51 -68 61 -49 63 12 2 24 -1 28 -6 3 -5 78 -14 166 -18 l160
-9 -115 -6 c-63 -4 -126 -8 -140 -9 -43 -5 108 -17 245 -20 105 -2 120 -4 80
-10 -27 -5 -75 -9 -105 -10 -30 -1 -49 -4 -42 -7 26 -10 11 -25 -23 -21 -19 2
-35 2 -35 -2 1 -11 131 -82 214 -116 157 -63 240 -78 421 -78 167 -1 221 7
355 51 320 105 587 366 716 700 36 94 42 88 8 -8z m-4713 -178 c15 -127 33
-184 69 -215 30 -24 104 -45 235 -65 56 -8 57 -9 17 -10 -51 -1 -189 -29 -217
-43 -67 -35 -91 -95 -109 -278 l-12 -115 -7 104 c-9 130 -31 229 -59 258 -32
34 -167 71 -272 74 -27 1 -8 6 54 15 158 23 218 51 241 112 13 35 38 203 41
272 1 36 2 43 5 20 1 -19 8 -77 14 -129z m-2821 -151 c0 -5 -4 -10 -9 -10 -6
0 -13 5 -16 10 -3 6 1 10 9 10 9 0 16 -4 16 -10z m7852 -55 c0 -5 -5 -11 -11
-13 -6 -2 -11 4 -11 13 0 9 5 15 11 13 6 -2 11 -8 11 -13z m-8411 -360 c14
-107 38 -181 68 -211 30 -31 102 -52 233 -69 68 -8 88 -13 58 -14 -73 -2 -210
-29 -255 -51 -30 -14 -47 -31 -59 -58 -20 -46 -43 -164 -53 -274 l-7 -83 -17
131 c-28 214 -42 249 -114 284 -44 21 -184 49 -260 51 -22 1 10 7 72 14 255
30 276 56 310 380 7 71 8 75 10 30 2 -27 8 -86 14 -130z m2395 144 c10 -17
-13 -36 -27 -22 -12 12 -4 33 11 33 5 0 12 -5 16 -11z m3134 -49 c0 -5 -5 -10
-11 -10 -5 0 -7 5 -4 10 3 6 8 10 11 10 2 0 4 -4 4 -10z m-4650 -31 c0 -6 -4
-7 -10 -4 -5 3 -10 11 -10 16 0 6 5 7 10 4 6 -3 10 -11 10 -16z m8045 -9 c3
-5 -1 -10 -9 -10 -9 0 -16 5 -16 10 0 6 4 10 9 10 6 0 13 -4 16 -10z m-4345
-34 c0 -3 -4 -8 -10 -11 -5 -3 -10 -1 -10 4 0 6 5 11 10 11 6 0 10 -2 10 -4z
m-3180 -166 c0 -5 -4 -10 -9 -10 -6 0 -13 5 -16 10 -3 6 1 10 9 10 9 0 16 -4
16 -10z m6547 -136 c-9 -9 -28 6 -21 18 4 6 10 6 17 -1 6 -6 8 -13 4 -17z
m-3726 -87 c-1 -12 -15 -9 -19 4 -3 6 1 10 8 8 6 -3 11 -8 11 -12z m3014 -25
c0 -18 -20 -15 -23 4 -3 10 1 15 10 12 7 -3 13 -10 13 -16z m-5185 -66 c0 -8
-5 -18 -11 -22 -14 -8 -33 11 -25 25 10 16 36 13 36 -3z m800 -16 c0 -5 -2
-10 -4 -10 -3 0 -8 5 -11 10 -3 6 -1 10 4 10 6 0 11 -4 11 -10z m3204 -41 c-3
-5 -10 -7 -15 -3 -5 3 -7 10 -3 15 3 5 10 7 15 3 5 -3 7 -10 3 -15z m-974 -80
c0 -23 -28 -26 -37 -3 -6 16 15 37 29 28 4 -3 8 -14 8 -25z m3475 -137 c16 -9
8 -10 -36 -5 -64 6 -132 -18 -122 -43 3 -8 -1 -14 -10 -14 -9 0 -20 -6 -24
-14 -4 -7 -18 -18 -30 -25 -13 -6 -23 -21 -23 -32 0 -14 -5 -19 -14 -16 -17 7
-30 -19 -15 -29 5 -3 7 -14 4 -24 -3 -10 -1 -36 4 -59 10 -44 3 -53 -17 -21
-20 32 -41 15 -32 -27 5 -19 13 -40 19 -46 17 -17 13 -26 -9 -20 -24 6 -26 -9
-5 -27 8 -7 15 -18 15 -25 0 -22 61 -74 107 -91 56 -22 50 -29 -8 -9 -72 25
-115 60 -149 120 -83 145 -26 330 125 402 42 20 62 23 125 20 42 -2 84 -8 95
-15z m-7410 -22 c0 -22 -29 -18 -33 3 -3 14 1 18 15 15 10 -2 18 -10 18 -18z
m2573 -153 c2 -10 -3 -17 -12 -17 -18 0 -29 16 -21 31 9 14 29 6 33 -14z
m-3278 -91 c0 -3 -4 -8 -10 -11 -5 -3 -10 -1 -10 4 0 6 5 11 10 11 6 0 10 -2
10 -4z m8630 -6 c0 -5 -4 -10 -10 -10 -5 0 -10 5 -10 10 0 6 5 10 10 10 6 0
10 -4 10 -10z m-7260 -55 c0 -8 -7 -15 -15 -15 -16 0 -20 12 -8 23 11 12 23 8
23 -8z m4680 -10 c0 -8 -4 -15 -10 -15 -5 0 -10 7 -10 15 0 8 5 15 10 15 6 0
10 -7 10 -15z m765 -5 c0 -7 -6 -15 -12 -17 -8 -3 -13 4 -13 17 0 13 5 20 13
18 6 -3 12 -11 12 -18z m-1521 -82 c13 -22 -14 -54 -38 -45 -16 6 -22 48 -9
61 11 11 35 3 47 -16z m-864 -68 c0 -5 -4 -10 -10 -10 -5 0 -10 5 -10 10 0 6
5 10 10 10 6 0 10 -4 10 -10z m-1780 -90 c0 -5 -4 -10 -10 -10 -5 0 -10 5 -10
10 0 6 5 10 10 10 6 0 10 -4 10 -10z m-465 -29 c3 -5 1 -12 -5 -16 -5 -3 -10
1 -10 9 0 18 6 21 15 7z m-2954 -84 c-1 -12 -15 -9 -19 4 -3 6 1 10 8 8 6 -3
11 -8 11 -12z m4409 -47 c0 -5 -4 -10 -10 -10 -5 0 -10 5 -10 10 0 6 5 10 10
10 6 0 10 -4 10 -10z m3447 -56 c8 -22 -18 -37 -36 -20 -7 8 -10 19 -7 25 10
16 36 13 43 -5z m-2227 -64 c0 -11 -7 -20 -15 -20 -15 0 -21 21 -8 33 12 13
23 7 23 -13z m-6026 -91 c-3 -5 -10 -7 -15 -3 -5 3 -7 10 -3 15 3 5 10 7 15 3
5 -3 7 -10 3 -15z m2414 2 c8 -4 12 -19 10 -32 -2 -18 -9 -24 -28 -24 -28 0
-39 27 -20 50 14 17 20 18 38 6z m6562 -31 c0 -5 -4 -10 -10 -10 -5 0 -10 5
-10 10 0 6 5 10 10 10 6 0 10 -4 10 -10z m-1553 -25 c7 -20 -2 -29 -21 -22 -9
4 -13 13 -10 22 8 19 23 19 31 0z m2265 -47 c-9 -9 -12 -7 -12 12 0 19 3 21
12 12 9 -9 9 -15 0 -24z m-5212 -28 c0 -5 -4 -10 -10 -10 -5 0 -10 5 -10 10 0
6 5 10 10 10 6 0 10 -4 10 -10z m866 -61 c10 -17 -13 -36 -27 -22 -12 12 -4
33 11 33 5 0 12 -5 16 -11z m-4438 -52 c2 -10 -3 -17 -12 -17 -10 0 -16 9 -16
21 0 24 23 21 28 -4z m2552 -23 c0 -8 -7 -14 -15 -14 -15 0 -21 21 -9 33 10 9
24 -2 24 -19z m-560 -154 c0 -5 -4 -10 -10 -10 -5 0 -10 5 -10 10 0 6 5 10 10
10 6 0 10 -4 10 -10z m5281 -45 c-1 -15 -24 -12 -29 3 -3 9 2 13 12 10 10 -1
17 -7 17 -13z m-6382 -94 c-15 -5 -22 6 -14 19 6 9 10 9 16 -1 5 -8 4 -15 -2
-18z m7586 19 c-3 -5 -10 -10 -16 -10 -5 0 -9 5 -9 10 0 6 7 10 16 10 8 0 12
-4 9 -10z m-3713 -25 c0 -5 -5 -11 -11 -13 -6 -2 -11 4 -11 13 0 9 5 15 11 13
6 -2 11 -8 11 -13z m638 -6 c0 -5 -7 -9 -15 -9 -15 0 -20 12 -9 23 8 8 24 -1
24 -14z m-6145 -29 c0 -22 -29 -18 -33 3 -3 14 1 18 15 15 10 -2 18 -10 18
-18z m8723 -23 c2 -10 -3 -17 -12 -17 -18 0 -29 16 -21 31 9 14 29 6 33 -14z
m-1818 3 c0 -5 -4 -10 -10 -10 -5 0 -10 5 -10 10 0 6 5 10 10 10 6 0 10 -4 10
-10z m-3030 -20 c0 -5 -4 -10 -10 -10 -5 0 -10 5 -10 10 0 6 5 10 10 10 6 0
10 -4 10 -10z m714 -9 c3 -5 -1 -14 -8 -20 -16 -13 -32 2 -21 19 8 12 22 13
29 1z m-3539 -141 c3 -5 1 -10 -4 -10 -6 0 -11 5 -11 10 0 6 2 10 4 10 3 0 8
-4 11 -10z m2465 -30 c0 -5 -4 -10 -10 -10 -5 0 -10 5 -10 10 0 6 5 10 10 10
6 0 10 -4 10 -10z m6111 -13 c-1 -12 -15 -9 -19 4 -3 6 1 10 8 8 6 -3 11 -8
11 -12z m-2131 -18 c0 -5 -7 -9 -15 -9 -15 0 -20 12 -9 23 8 8 24 -1 24 -14z
m-5160 -13 c0 -11 -19 -15 -25 -6 -3 5 1 10 9 10 9 0 16 -2 16 -4z"/>
<path d="M8595 14140 c-3 -5 1 -10 9 -10 9 0 16 5 16 10 0 6 -4 10 -9 10 -6 0
-13 -4 -16 -10z"/>
<path d="M8403 12949 c11 -7 23 -7 35 0 14 9 11 10 -18 10 -29 0 -32 -1 -17
-10z"/>
<path d="M1720 7586 c0 -3 15 -15 33 -26 17 -11 26 -20 20 -20 -7 0 -13 -6
-13 -14 0 -11 -9 -13 -35 -9 -21 3 -41 1 -50 -7 -12 -10 -18 -10 -30 0 -21 17
-112 5 -154 -21 -30 -18 -33 -24 -28 -54 l6 -34 -51 -7 c-61 -8 -47 -19 39
-29 68 -8 124 5 158 36 19 17 24 17 65 4 25 -8 61 -18 80 -24 34 -9 33 -9 -20
-10 -30 -1 -84 -11 -120 -24 -52 -19 -70 -31 -90 -61 -16 -25 -45 -48 -83 -67
-31 -16 -87 -58 -122 -92 -65 -63 -65 -63 -65 -120 0 -31 -4 -57 -8 -57 -22 0
-42 39 -42 82 0 53 -8 58 -78 58 -51 0 -124 -29 -160 -63 -58 -54 -81 -162
-44 -206 15 -18 22 -20 52 -11 20 5 53 26 74 45 56 51 80 26 31 -31 -32 -37
-32 -71 -2 -85 21 -10 25 -21 36 -107 6 -54 12 -108 12 -121 1 -23 2 -24 72
-17 50 5 74 11 80 22 32 57 73 67 139 33 35 -18 65 -24 141 -29 4 0 7 -6 7
-14 0 -19 38 -46 65 -46 15 0 21 -7 22 -29 1 -17 -3 -28 -10 -28 -31 1 -77
-17 -82 -34 -3 -10 -14 -21 -25 -24 -10 -3 -21 -12 -24 -20 -3 -8 -11 -15 -18
-15 -7 0 -19 -9 -26 -20 -7 -11 -19 -20 -26 -20 -24 0 -28 -18 -10 -52 22 -43
15 -158 -13 -213 l-21 -39 -20 40 c-11 23 -43 67 -70 100 -119 143 -135 195
-81 278 42 68 37 80 -36 86 -71 6 -105 27 -139 83 -33 57 -92 109 -146 132
-25 11 -57 28 -72 39 -38 27 -45 15 -18 -29 19 -31 21 -40 10 -60 -8 -16 -11
-52 -8 -109 2 -47 3 -86 2 -86 -2 0 -8 19 -15 42 -9 36 -12 40 -21 24 -26 -47
27 -212 104 -323 231 -334 670 -449 1045 -273 493 231 682 823 406 1270 -107
172 -286 314 -480 381 -58 20 -143 35 -143 25z m370 -244 c0 -12 -3 -12 -17
-1 -10 7 -19 14 -21 15 -1 1 1 9 4 19 7 17 8 17 21 -1 7 -10 13 -24 13 -32z"/>
<path d="M2591 4171 c10 -7 15 -23 14 -48 -1 -31 -5 -38 -21 -36 -12 1 -25 -9
-36 -27 -12 -21 -22 -28 -34 -23 -12 4 -15 3 -10 -5 4 -7 3 -19 -2 -28 -8 -14
-10 -14 -21 0 -15 18 -47 21 -56 6 -3 -5 -8 -46 -10 -91 -3 -45 -10 -96 -16
-114 -10 -27 -9 -41 5 -81 21 -58 25 -89 11 -89 -5 0 -9 4 -7 9 2 6 -4 27 -14
47 -11 26 -15 54 -12 89 5 50 -3 64 -20 35 -7 -14 -12 -14 -45 0 -55 23 -64
20 -59 -20 2 -19 10 -39 17 -45 17 -14 3 -52 -32 -91 -27 -29 -29 -57 -8 -85
22 -29 18 -39 -6 -13 -21 24 -21 22 -3 -28 5 -14 3 -14 -8 2 -9 11 -19 31 -23
45 -11 37 -55 130 -61 130 -13 0 8 -108 32 -161 68 -151 261 -239 431 -195
233 59 377 258 342 474 -21 133 -105 249 -222 307 -68 33 -164 61 -126 36z
m-14 -123 c-3 -8 -6 -5 -6 6 -1 11 2 17 5 13 3 -3 4 -12 1 -19z m23 -42 c0 -3
-4 -8 -10 -11 -5 -3 -10 -1 -10 4 0 6 5 11 10 11 6 0 10 -2 10 -4z m-30 -30
c0 -2 -7 -9 -15 -16 -13 -11 -14 -10 -9 4 5 14 24 23 24 12z m-68 -51 c-17
-14 -34 -25 -38 -25 -11 1 48 50 59 50 5 0 -5 -11 -21 -25z m-32 -49 c0 -3 -4
-8 -10 -11 -5 -3 -10 -1 -10 4 0 6 5 11 10 11 6 0 10 -2 10 -4z m-87 -324 c20
-20 37 -41 37 -47 0 -5 -9 1 -20 15 -16 21 -20 22 -20 7 0 -26 -39 -37 -72
-21 -16 8 -28 19 -28 24 0 5 12 2 28 -5 29 -16 47 -1 21 17 -12 8 -12 10 0 15
11 4 8 10 -10 25 l-24 19 25 -6 c14 -4 42 -23 63 -43z m72 18 c3 -5 1 -10 -4
-10 -6 0 -11 5 -11 10 0 6 2 10 4 10 3 0 8 -4 11 -10z m60 -40 c3 -5 2 -10 -4
-10 -5 0 -13 5 -16 10 -3 6 -2 10 4 10 5 0 13 -4 16 -10z m125 -26 c0 -12 7
-14 33 -10 27 5 24 2 -20 -19 -58 -29 -103 -26 -103 6 0 10 -4 19 -10 19 -5 0
-10 5 -10 10 0 6 25 10 55 10 43 0 55 -3 55 -16z"/>
</g>
</svg>
