<?xml version="1.0" standalone="no"?>
<!DOCTYPE svg PUBLIC "-//W3C//DTD SVG 20010904//EN"
 "http://www.w3.org/TR/2001/REC-SVG-20010904/DTD/svg10.dtd">
<svg version="1.0" xmlns="http://www.w3.org/2000/svg"
 width="1024.000000pt" height="1536.000000pt" viewBox="0 0 1024.000000 1536.000000"
 preserveAspectRatio="xMidYMid meet">

<g transform="translate(0.000000,1536.000000) scale(0.100000,-0.100000)"
fill="#000000" stroke="none">
<path d="M0 7680 l0 -7680 5120 0 5120 0 0 7680 0 7680 -5120 0 -5120 0 0
-7680z m1650 7631 c0 -28 -28 -47 -48 -34 -23 14 -26 38 -7 57 20 20 55 5 55
-23z m1868 -274 c2 -12 -3 -17 -17 -17 -12 0 -21 6 -21 13 0 31 32 34 38 4z
m2910 -34 c-4 -22 -22 -20 -26 1 -2 10 3 16 13 16 10 0 15 -7 13 -17z m2075
-7 c411 -94 763 -367 951 -738 82 -160 158 -420 155 -531 -1 -28 -7 -4 -19 68
-44 270 -151 511 -314 710 -23 27 -48 55 -57 62 -8 6 -41 37 -71 67 -31 31
-60 56 -65 56 -6 0 -17 8 -26 18 -9 9 -33 26 -54 37 -21 11 -44 26 -51 32 -7
7 -23 13 -35 13 -12 0 -28 9 -34 19 -8 13 -19 18 -32 14 -13 -3 -23 0 -27 11
-3 9 -10 13 -15 10 -5 -3 -12 2 -15 11 -5 12 -9 13 -14 5 -5 -8 -11 -8 -21 2
-8 7 -23 14 -34 16 -11 2 -37 12 -58 23 -22 11 -47 17 -57 14 -25 -8 -73 12
-65 27 4 7 0 5 -7 -4 -10 -11 -19 -14 -29 -7 -21 13 -193 9 -180 -4 14 -14 14
-27 0 -27 -5 0 -8 3 -5 8 2 4 -2 16 -10 26 -14 19 -14 19 -37 -2 -26 -25 -39
-28 -31 -9 3 8 -2 14 -11 14 -9 0 -14 -6 -11 -14 4 -8 -2 -13 -17 -12 -12 0
-16 3 -9 6 17 7 15 23 -2 23 -10 0 -13 -8 -10 -25 2 -14 0 -25 -6 -25 -5 0
-10 7 -10 15 0 11 -9 15 -29 13 -16 -1 -27 -6 -25 -10 3 -5 9 -6 13 -4 4 3 13
1 21 -5 11 -6 3 -9 -25 -9 -23 0 -45 4 -50 9 -6 6 -15 4 -22 -4 -10 -11 -7
-15 17 -20 17 -4 28 -11 24 -16 -3 -5 -12 -5 -23 1 -18 9 -31 5 -31 -11 0 -4
10 -10 23 -12 13 -3 8 -5 -15 -6 -21 0 -38 4 -38 9 0 6 -5 10 -11 10 -5 0 -7
-5 -4 -10 3 -6 -2 -13 -12 -17 -10 -4 -24 -14 -31 -22 -9 -10 -11 -11 -6 -2 5
11 2 13 -16 8 -13 -3 -29 -2 -36 4 -9 8 -12 4 -10 -15 2 -14 -2 -24 -8 -23 -6
1 -10 -4 -8 -10 1 -7 -2 -13 -8 -13 -6 0 -10 5 -10 12 0 6 -8 4 -19 -6 -16
-15 -19 -15 -24 -2 -4 11 -1 13 11 10 14 -5 15 -4 2 5 -24 17 -30 13 -28 -18
1 -16 5 -28 8 -26 3 2 12 -1 20 -7 12 -8 12 -9 -3 -4 -11 3 -20 0 -24 -10 -8
-22 4 -29 24 -13 16 12 17 12 6 -2 -14 -17 -69 -23 -78 -8 -4 5 -11 9 -18 9
-11 0 32 -35 43 -35 3 0 11 -4 18 -9 10 -6 11 -11 2 -20 -8 -8 -13 -7 -20 4
-9 13 -10 13 -11 0 0 -10 -3 -8 -9 5 -5 12 -9 14 -9 6 -1 -8 7 -23 17 -34 9
-11 12 -17 5 -14 -6 4 -14 1 -16 -5 -4 -10 -7 -10 -15 0 -7 11 -11 10 -16 -3
-7 -19 14 -52 23 -36 6 10 102 3 98 -8 -1 -3 3 -6 8 -6 6 0 9 3 7 8 -4 14 19
7 24 -8 4 -8 15 -15 26 -15 13 0 17 4 12 13 -6 9 -5 9 7 0 13 -10 49 -17 74
-14 6 1 3 6 -5 12 -13 9 -13 10 0 6 8 -2 14 -9 13 -15 -1 -6 30 -9 82 -8 47 1
85 -1 85 -5 0 -16 -280 -31 -363 -20 -38 5 -63 4 -73 -3 -12 -9 -10 -11 13
-12 43 -2 114 -24 108 -33 -6 -11 19 -21 51 -21 13 0 24 -4 24 -8 0 -4 -30 -6
-67 -4 -70 3 -101 -7 -88 -28 5 -8 21 -10 46 -7 25 3 37 1 33 -5 -4 -6 -26 -8
-50 -5 -24 2 -44 1 -44 -4 0 -5 3 -9 8 -10 44 -6 109 -9 219 -11 73 -2 133 -6
133 -9 0 -13 -92 -24 -199 -24 -63 0 -106 -1 -97 -3 9 -2 16 -7 16 -12 0 -4
-9 -6 -20 -3 -11 3 -20 9 -20 14 0 5 -7 9 -16 9 -10 0 -14 -6 -11 -14 4 -11 1
-13 -10 -9 -11 4 -14 2 -9 -5 9 -16 -7 -15 -22 0 -9 9 -12 9 -12 0 0 -7 5 -12
10 -12 6 0 9 -3 9 -7 -4 -22 3 -24 21 -8 17 15 20 16 15 3 -5 -12 2 -17 32
-22 78 -11 140 -17 206 -18 51 -2 66 -5 63 -15 -3 -7 -1 -13 4 -13 6 0 10 7
10 15 0 17 87 19 97 1 3 -6 3 -8 -1 -4 -5 4 -18 3 -31 -2 -14 -5 -26 -5 -33 2
-7 7 -14 4 -21 -11 -6 -11 -17 -18 -25 -15 -7 3 -16 -3 -20 -12 -8 -21 -4 -25
23 -27 11 -1 21 -5 21 -9 0 -12 -187 0 -275 17 -44 8 -96 18 -115 21 -19 3
-38 8 -42 11 -5 2 -8 0 -8 -5 0 -6 23 -15 50 -22 35 -8 50 -17 50 -28 0 -11
-3 -13 -8 -6 -4 6 -15 10 -24 8 -10 -1 -18 1 -18 6 0 4 -8 7 -17 7 -48 0 -64
4 -58 14 4 6 -2 5 -13 -2 -12 -7 -18 -17 -16 -21 3 -5 10 -6 15 -2 12 7 59 -4
58 -14 -3 -19 3 -22 21 -12 15 8 20 8 20 -1 0 -6 9 -9 20 -6 11 3 20 1 20 -4
0 -8 -32 -14 -54 -10 -5 1 -4 -5 4 -13 18 -22 3 -20 -27 4 -27 21 -48 27 -38
10 3 -5 1 -10 -4 -10 -6 0 -11 6 -11 14 0 8 -7 16 -15 20 -8 3 -15 3 -15 0 0
-10 40 -47 45 -42 4 3 32 -7 63 -22 31 -15 61 -25 67 -22 5 3 4 7 -3 10 -7 2
-12 13 -11 25 0 12 3 16 6 9 2 -6 9 -10 14 -6 5 3 9 -3 9 -14 0 -13 12 -23 40
-32 22 -7 46 -20 53 -28 10 -13 8 -14 -16 -8 -20 5 -27 3 -22 -4 7 -11 41 -9
100 6 20 5 20 5 1 -10 -11 -9 -28 -16 -38 -16 -10 0 -18 -5 -18 -11 0 -5 -4
-7 -10 -4 -5 3 -18 2 -27 -4 -10 -5 -36 -12 -58 -15 -48 -8 -106 -25 -121 -37
-6 -5 -14 -6 -17 -2 -4 3 -7 1 -7 -5 0 -7 5 -12 11 -12 5 0 7 -5 3 -11 -5 -8
-9 -7 -15 4 -12 20 -139 21 -139 0 0 -7 -9 -17 -19 -23 -29 -15 -38 -12 -15 5
25 19 11 19 -25 1 -27 -15 -34 -38 -17 -64 4 -7 12 -10 17 -7 5 4 9 2 9 -4 0
-5 -6 -11 -12 -14 -15 -5 43 -31 90 -40 26 -5 32 -3 33 11 1 16 2 16 6 0 3
-11 10 -15 20 -11 12 5 14 3 8 -8 -8 -12 -6 -12 9 0 13 11 16 11 14 2 -2 -10
18 -13 87 -12 97 2 149 11 206 35 20 8 39 13 42 10 3 -3 19 2 36 11 17 8 31
13 31 11 0 -3 11 -1 25 4 15 6 25 6 25 0 0 -9 -39 -26 -52 -22 -5 1 -8 -3 -8
-9 0 -5 -4 -8 -9 -5 -5 4 -7 -4 -3 -16 3 -13 1 -19 -5 -15 -15 9 -32 -14 -29
-38 4 -26 26 -32 26 -6 0 22 15 36 24 22 4 -5 1 -11 -5 -13 -9 -3 -9 -9 -1
-25 10 -19 9 -20 -18 -17 -31 4 -41 -12 -15 -22 26 -10 16 -21 -15 -16 -16 2
-28 7 -26 11 3 4 -5 7 -16 7 -20 0 -20 0 1 -14 11 -8 21 -22 21 -31 0 -9 -3
-12 -8 -6 -8 11 -23 14 -92 16 -25 1 -78 8 -119 16 -40 8 -79 12 -86 9 -8 -3
-15 -1 -17 4 -2 5 -16 12 -32 16 -21 5 -27 4 -22 -5 4 -6 12 -8 18 -5 6 4 5
-3 -2 -16 -11 -20 -10 -21 8 -11 15 8 23 7 31 -3 9 -10 2 -13 -31 -14 -23 -1
-44 -5 -47 -10 -3 -4 -12 -8 -18 -9 -18 -4 -16 16 2 23 8 4 12 10 9 16 -3 5
-13 0 -21 -12 -8 -12 -21 -19 -28 -16 -8 3 -19 -2 -25 -10 -8 -9 -9 -14 -2
-14 6 0 18 -3 28 -7 12 -4 15 -3 10 5 -4 7 -3 12 3 12 15 0 22 -16 15 -35 -5
-12 -9 -13 -14 -5 -5 8 -13 9 -21 4 -15 -10 -19 -10 -51 -14 -30 -3 122 -29
190 -32 34 -2 51 -7 48 -15 -4 -10 14 -18 65 -28 47 -9 126 -37 148 -52 14
-10 32 -18 39 -19 25 -4 42 -13 42 -22 0 -5 -12 -7 -27 -4 -22 4 -25 2 -21
-14 4 -17 -1 -19 -48 -19 -29 0 -51 3 -48 6 7 12 -77 2 -89 -11 -7 -7 -7 -10
-2 -7 14 7 46 -18 43 -34 -2 -8 3 -13 10 -11 6 1 12 -2 12 -7 0 -5 27 -12 60
-16 75 -9 99 -31 40 -37 -45 -4 -50 -1 -17 12 14 6 16 9 6 9 -9 1 -29 -6 -46
-14 -18 -9 -72 -17 -134 -20 -57 -3 -133 -9 -169 -14 -36 -5 -111 -8 -168 -8
-56 1 -103 -2 -105 -7 -2 -6 -9 -6 -17 -1 -8 5 -26 10 -40 11 -21 2 -20 0 10
-14 19 -8 44 -15 55 -14 14 0 15 -1 4 -4 -10 -3 -19 -14 -22 -26 -4 -12 -11
-18 -19 -16 -9 4 -14 -3 -14 -22 -1 -16 4 -27 12 -27 9 0 10 5 3 19 -5 10 -8
18 -5 18 2 0 11 3 20 6 11 4 16 1 16 -10 0 -9 7 -19 15 -22 8 -4 13 -10 10
-14 -3 -4 5 -10 17 -13 29 -8 17 -19 -24 -23 -42 -4 -70 4 -62 18 4 6 10 6 17
-1 6 -6 18 -11 27 -11 9 1 6 6 -9 14 -14 8 -31 12 -38 9 -8 -3 -13 3 -13 15 0
12 -5 24 -12 28 -7 5 -8 3 -3 -6 6 -9 2 -10 -16 -5 l-24 8 20 -24 c11 -13 25
-28 30 -34 13 -15 72 -35 79 -28 3 4 6 2 6 -4 0 -21 235 -49 438 -53 20 0 14
-38 -7 -45 -12 -4 -18 -12 -14 -21 3 -7 1 -14 -5 -14 -5 0 -12 7 -16 15 -4 12
-11 13 -31 5 -15 -6 -31 -7 -37 -4 -6 4 -8 2 -4 -4 3 -5 0 -13 -6 -15 -7 -3
-1 -6 15 -6 15 -1 27 4 27 12 0 8 3 7 10 -3 12 -20 -7 -31 -45 -25 -16 2 -61
7 -99 10 -37 3 -71 7 -75 10 -9 5 -95 18 -131 19 -14 1 -29 4 -35 7 -23 13
-45 18 -45 9 0 -5 8 -11 18 -14 11 -4 18 -15 18 -28 -1 -14 6 -24 18 -26 10
-2 28 -12 38 -22 11 -10 33 -20 49 -24 40 -8 37 -22 -5 -22 -19 0 -33 3 -30 7
2 4 -4 5 -15 2 -10 -3 -22 0 -25 6 -4 6 -17 11 -28 11 -17 0 -14 -4 15 -24 19
-13 45 -27 57 -31 15 -5 19 -10 11 -14 -7 -5 5 -13 29 -21 22 -7 40 -16 40
-20 0 -10 50 -31 60 -25 4 3 10 -1 13 -8 2 -7 -6 -18 -19 -24 -13 -6 -24 -7
-24 -2 0 5 -13 9 -28 9 -15 0 -33 5 -40 12 -7 7 -12 9 -12 4 0 -12 27 -36 34
-29 3 4 6 1 6 -6 0 -7 6 -11 13 -8 6 2 17 -3 23 -11 6 -8 20 -16 30 -17 24 -2
84 -37 84 -49 0 -5 -6 -4 -12 2 -7 5 -23 8 -35 6 -13 -2 -23 0 -23 5 0 5 -7
12 -16 15 -8 3 -12 2 -9 -4 3 -6 0 -10 -7 -10 -10 0 -9 -3 2 -9 8 -6 18 -7 22
-5 5 3 11 -2 14 -10 3 -9 10 -13 15 -10 5 3 9 1 9 -4 0 -5 25 -20 55 -32 30
-12 55 -26 55 -29 0 -4 6 -8 13 -8 21 -1 201 -54 217 -64 11 -8 7 -9 -15 -5
l-30 6 25 -15 25 -14 -23 -1 c-14 0 -21 -4 -16 -11 3 -6 17 -8 29 -5 13 3 27
2 30 -4 3 -6 17 -7 31 -4 14 4 24 2 24 -5 0 -6 7 -8 17 -4 11 4 14 3 9 -5 -4
-7 -2 -12 3 -12 6 0 11 5 11 11 0 8 12 9 38 4 20 -4 43 -8 50 -8 6 0 12 -4 12
-9 0 -5 5 -6 11 -2 6 3 15 0 20 -7 6 -10 9 -10 9 -2 0 9 7 10 26 3 39 -15 237
-4 344 18 443 94 780 352 981 750 27 53 49 92 49 86 0 -6 -22 -55 -50 -108
-136 -269 -376 -505 -630 -624 -449 -208 -910 -197 -1310 32 -389 223 -643
576 -716 999 -22 126 -15 377 14 497 73 301 193 520 401 733 128 131 237 211
385 282 105 50 256 99 371 120 104 19 419 13 518 -9z m-203 -66 c0 -5 -5 -10
-11 -10 -5 0 -7 5 -4 10 3 6 8 10 11 10 2 0 4 -4 4 -10z m348 -45 c-3 -3 -9 2
-12 12 -6 14 -5 15 5 6 7 -7 10 -15 7 -18z m937 -44 c-9 -16 -25 -3 -18 15 4
10 9 12 15 6 6 -6 7 -15 3 -21z m-4065 5 c0 -3 -4 -8 -10 -11 -5 -3 -10 -1
-10 4 0 6 5 11 10 11 6 0 10 -2 10 -4z m-5012 -25 c3 -8 -1 -12 -9 -9 -7 2
-15 10 -17 17 -3 8 1 12 9 9 7 -2 15 -10 17 -17z m1819 -25 c205 -44 400 -155
540 -310 25 -28 49 -50 53 -49 120 34 327 64 455 65 133 1 191 -11 248 -49 35
-25 37 -28 37 -82 -1 -72 -12 -96 -85 -181 -81 -96 -169 -169 -369 -306 -210
-144 -441 -274 -608 -341 -22 -9 -35 -20 -31 -26 3 -6 1 -7 -5 -3 -6 4 -29 -5
-51 -19 -23 -14 -43 -25 -46 -25 -2 0 -42 -17 -87 -39 -234 -109 -406 -168
-694 -240 -260 -64 -385 -88 -519 -101 -155 -14 -255 -12 -335 6 -76 17 -112
40 -136 86 -31 61 9 174 103 288 78 95 268 247 419 335 l31 18 6 111 c20 441
328 794 755 866 79 13 247 11 319 -4z m5594 -14 c-7 -2 -18 1 -23 6 -8 8 -4 9
13 5 13 -4 18 -8 10 -11z m-1771 -111 c0 -6 -4 -13 -10 -16 -5 -3 -10 1 -10 9
0 9 5 16 10 16 6 0 10 -4 10 -9z m1675 -20 c3 -5 0 -13 -6 -17 -7 -4 -9 -3 -5
4 3 5 0 13 -6 15 -9 4 -10 6 -1 6 6 1 14 -3 18 -8z m75 -11 c0 -5 -2 -10 -4
-10 -3 0 -8 5 -11 10 -3 6 -1 10 4 10 6 0 11 -4 11 -10z m-7132 -32 c-3 -7
-11 -13 -18 -13 -7 0 -15 6 -17 13 -3 7 4 12 17 12 13 0 20 -5 18 -12z m9162
-88 c0 -5 -4 -10 -10 -10 -5 0 -10 5 -10 10 0 6 5 10 10 10 6 0 10 -4 10 -10z
m-1650 -174 c0 -2 -9 -6 -20 -9 -11 -3 -20 -1 -20 4 0 5 9 9 20 9 11 0 20 -2
20 -4z m-72 -12 c-10 -10 -81 -17 -75 -7 3 5 23 10 43 11 21 2 35 0 32 -4z
m-58 -194 c0 -5 -2 -10 -4 -10 -3 0 -8 5 -11 10 -3 6 -1 10 4 10 6 0 11 -4 11
-10z m-3840 -30 c0 -5 -4 -10 -10 -10 -5 0 -10 5 -10 10 0 6 5 10 10 10 6 0
10 -4 10 -10z m1918 -43 c2 -10 -3 -17 -12 -17 -18 0 -29 16 -21 31 9 14 29 6
33 -14z m-837 -127 c10 -52 23 -98 27 -102 4 -4 48 -15 97 -24 125 -23 131
-29 44 -44 -126 -21 -146 -28 -152 -53 -3 -12 -13 -71 -21 -132 -23 -164 -23
-165 -25 -100 -1 65 -35 243 -48 256 -4 4 -55 16 -113 26 l-105 17 107 26 c59
14 109 28 112 31 7 6 46 187 47 219 l2 25 4 -25 c2 -14 13 -68 24 -120z
m-4801 126 c0 -3 -4 -8 -10 -11 -5 -3 -10 -1 -10 4 0 6 5 11 10 11 6 0 10 -2
10 -4z m7154 -11 c3 -8 1 -15 -4 -15 -6 0 -10 7 -10 15 0 8 2 15 4 15 2 0 6
-7 10 -15z m-3120 -106 c-3 -5 -10 -7 -15 -3 -5 3 -7 10 -3 15 3 5 10 7 15 3
5 -3 7 -10 3 -15z m3186 -59 c0 -5 -5 -10 -11 -10 -5 0 -7 5 -4 10 3 6 8 10
11 10 2 0 4 -4 4 -10z m-36 -8 c3 -5 -1 -9 -9 -9 -8 0 -12 4 -9 9 3 4 7 8 9 8
2 0 6 -4 9 -8z m-34 -10 c0 -5 -7 -9 -15 -9 -8 0 -15 4 -15 9 0 4 7 8 15 8 8
0 15 -4 15 -8z m-151 -33 c-7 -4 -17 -5 -21 -3 -4 3 -8 0 -8 -5 0 -6 9 -12 20
-12 11 -1 25 -3 30 -4 6 -1 21 -3 35 -4 14 0 25 -5 25 -11 0 -5 -11 -10 -25
-10 -14 0 -25 5 -25 11 0 8 -5 8 -15 -1 -10 -8 -12 -17 -6 -24 6 -7 6 -18 1
-26 -5 -8 -6 -19 -3 -25 3 -5 0 -5 -7 2 -9 8 -19 9 -31 2 -15 -8 -17 -6 -12 7
5 13 3 15 -7 9 -9 -5 -11 -4 -6 3 4 7 4 13 -1 13 -35 6 -52 5 -47 -2 2 -4 11
-6 19 -2 8 3 15 1 15 -4 0 -5 -13 -10 -29 -11 -25 -2 -28 1 -23 20 4 16 2 20
-10 15 -11 -4 -15 1 -15 19 0 24 0 24 17 4 18 -20 18 -20 33 3 29 45 44 54 77
49 22 -3 28 -7 19 -13z m41 11 c0 -5 -4 -10 -10 -10 -5 0 -10 5 -10 10 0 6 5
10 10 10 6 0 10 -4 10 -10z m36 -109 c-3 -5 -15 -7 -26 -4 -28 7 -25 13 6 13
14 0 23 -4 20 -9z m-4583 -38 c-54 -371 -306 -645 -678 -737 -199 -49 -440
-14 -654 94 -127 64 -127 64 -35 84 43 10 102 23 131 31 47 11 51 11 46 -4 -4
-13 -2 -13 10 2 10 12 17 14 22 8 3 -6 1 -11 -4 -11 -17 0 -13 -30 4 -36 8 -4
15 -11 15 -18 0 -6 9 -17 21 -24 12 -8 18 -9 15 -3 -4 5 -2 12 3 15 5 3 11 -1
15 -9 6 -15 76 -22 90 -8 3 4 13 8 20 9 32 5 132 37 143 46 7 5 18 8 25 5 12
-4 -20 -21 -125 -66 -53 -22 -56 -47 -5 -37 18 3 27 2 23 -4 -5 -8 35 -13 105
-12 3 0 15 3 28 7 16 5 22 2 22 -10 0 -13 5 -15 23 -9 12 4 36 9 52 10 54 5
94 13 115 24 11 6 26 8 32 4 7 -5 8 -3 3 6 -5 9 -2 10 14 5 12 -4 28 -2 35 5
8 6 23 12 33 14 11 3 34 13 53 24 41 25 212 183 205 190 -8 8 16 32 26 26 5
-3 6 1 3 9 -3 8 2 20 11 27 17 14 21 35 4 24 -8 -4 -7 0 1 15 6 12 17 24 25
27 8 3 12 11 9 19 -3 7 2 15 11 18 17 7 36 47 42 92 3 16 9 35 15 42 6 8 5 19
-2 34 -7 12 -7 19 -2 15 6 -4 8 2 5 14 -4 15 -11 19 -24 15 -32 -11 -20 9 24
37 23 15 45 28 49 28 4 0 4 -17 1 -37z m4554 21 c-3 -3 -12 -4 -19 -1 -8 3 -5
6 6 6 11 1 17 -2 13 -5z m412 -33 c7 -5 9 -11 5 -14 -5 -3 -15 1 -22 9 -14 16
-5 18 17 5z m41 -27 c0 -8 -4 -12 -10 -9 -5 3 -10 13 -10 21 0 8 5 12 10 9 6
-3 10 -13 10 -21z m1530 -79 c0 -52 -3 -95 -7 -95 -5 0 -8 43 -8 95 0 52 3 95
8 95 4 0 7 -43 7 -95z m-1570 55 c0 -5 -4 -10 -10 -10 -5 0 -10 5 -10 10 0 6
5 10 10 10 6 0 10 -4 10 -10z m-6 -65 c-4 -8 -11 -12 -16 -9 -6 4 -5 10 3 15
19 12 19 11 13 -6z m-459 -46 c11 -17 -1 -21 -15 -4 -8 9 -8 15 -2 15 6 0 14
-5 17 -11z m50 1 c3 -5 -1 -10 -10 -10 -9 0 -13 5 -10 10 3 6 8 10 10 10 2 0
7 -4 10 -10z m-75 -15 c0 -1 -6 -7 -13 -13 -10 -8 -13 -6 -13 7 0 11 6 17 13
14 7 -3 13 -6 13 -8z m473 8 c-7 -2 -19 -2 -25 0 -7 3 -2 5 12 5 14 0 19 -2
13 -5z m44 1 c-3 -3 -12 -4 -19 -1 -8 3 -5 6 6 6 11 1 17 -2 13 -5z m-447 -24
c13 -8 13 -10 -2 -10 -9 0 -20 5 -23 10 -8 13 5 13 25 0z m27 -25 c0 -8 -4
-12 -9 -9 -5 3 -6 10 -3 15 9 13 12 11 12 -6z m-37 -5 c-8 -5 -22 -9 -30 -9
-10 0 -8 3 5 9 27 12 43 12 25 0z m81 -8 c-7 -2 -18 1 -23 6 -8 8 -4 9 13 5
13 -4 18 -8 10 -11z m1905 -51 c-8 -74 -59 -281 -77 -309 -9 -15 -10 -14 -4 3
22 64 65 254 71 310 4 36 9 65 12 65 2 0 2 -31 -2 -69z m-1589 -107 c-3 -3
-12 -4 -19 -1 -8 3 -5 6 6 6 11 1 17 -2 13 -5z m-57 -19 c19 -23 8 -25 -14 -4
-11 11 -15 19 -9 19 6 0 16 -7 23 -15z m-130 -59 c-7 -7 -13 -7 -20 0 -6 6 -3
10 10 10 13 0 16 -4 10 -10z m-5860 -26 c-8 -5 -22 -9 -30 -9 -10 0 -8 3 5 9
27 12 43 12 25 0z m6008 -27 c-8 -10 -14 -10 -24 -2 -18 15 -18 15 11 15 19 0
22 -3 13 -13z m-5993 -53 c-26 -11 -35 -12 -35 -2 0 4 12 8 28 9 23 1 24 1 7
-7z m1345 -20 c0 -11 -7 -20 -15 -20 -8 0 -15 9 -15 20 0 11 7 20 15 20 8 0
15 -9 15 -20z m3959 -41 c-16 -10 -23 -4 -14 10 3 6 11 8 17 5 6 -4 5 -9 -3
-15z m-4926 -16 c-7 -2 -19 -2 -25 0 -7 3 -2 5 12 5 14 0 19 -2 13 -5z m1741
-9 c20 -8 21 -67 2 -83 -37 -31 -78 43 -44 77 14 14 20 14 42 6z m1646 -4 c0
-5 -4 -10 -10 -10 -5 0 -10 5 -10 10 0 6 5 10 10 10 6 0 10 -4 10 -10z m1567
-12 c-3 -8 -6 -5 -6 6 -1 11 2 17 5 13 3 -3 4 -12 1 -19z m-1037 -9 c0 -5 -4
-9 -10 -9 -5 0 -10 7 -10 16 0 8 5 12 10 9 6 -3 10 -10 10 -16z m1207 -325
c-6 -6 -77 9 -77 16 0 4 18 3 40 -2 23 -6 39 -12 37 -14z m-2147 -34 c0 -5 -2
-10 -4 -10 -3 0 -8 5 -11 10 -3 6 -1 10 4 10 6 0 11 -4 11 -10z m-4855 -69
c-9 -16 -25 -3 -18 15 4 10 9 12 15 6 6 -6 7 -15 3 -21z m7055 -21 c11 -7 6
-10 -20 -10 -26 0 -31 3 -20 10 8 5 17 10 20 10 3 0 12 -5 20 -10z m2348 -1
c-2 -6 -8 -10 -13 -10 -5 0 -11 4 -13 10 -2 6 4 11 13 11 9 0 15 -5 13 -11z
m-3838 -14 c0 -8 -7 -15 -15 -15 -8 0 -15 7 -15 15 0 8 7 15 15 15 8 0 15 -7
15 -15z m-2120 -5 c0 -5 -4 -10 -10 -10 -5 0 -10 5 -10 10 0 6 5 10 10 10 6 0
10 -4 10 -10z m-2090 -84 c0 -3 -4 -8 -10 -11 -5 -3 -10 -1 -10 4 0 6 5 11 10
11 6 0 10 -2 10 -4z m3308 -89 c2 -10 -3 -17 -12 -17 -18 0 -29 16 -21 31 9
14 29 6 33 -14z m2779 -63 c-3 -3 -12 -4 -19 -1 -8 3 -5 6 6 6 11 1 17 -2 13
-5z m120 -34 c3 -10 2 -11 -4 -4 -4 7 -17 14 -28 17 -16 5 -15 5 4 4 14 -1 26
-9 28 -17z m-5673 -66 c5 -14 -8 -54 -19 -54 -28 0 -48 44 -28 63 12 13 41 7
47 -9z m4361 -23 c3 -5 1 -12 -5 -16 -5 -3 -10 1 -10 9 0 18 6 21 15 7z
m-2551 -178 c4 -9 0 -23 -9 -32 -15 -15 -17 -14 -30 2 -7 11 -11 25 -8 33 7
19 39 18 47 -3z m-640 -2 c9 -14 -4 -41 -19 -41 -18 0 -28 17 -21 35 6 17 32
20 40 6z m-2664 -57 c0 -8 -4 -12 -10 -9 -5 3 -10 10 -10 16 0 5 5 9 10 9 6 0
10 -7 10 -16z m5150 -4 c0 -5 -4 -10 -10 -10 -5 0 -10 5 -10 10 0 6 5 10 10
10 6 0 10 -4 10 -10z m-4420 -65 c0 -8 -4 -15 -10 -15 -5 0 -10 7 -10 15 0 8
5 15 10 15 6 0 10 -7 10 -15z m7641 -36 c9 -17 8 -25 -4 -37 -21 -20 -47 -8
-47 21 0 42 31 52 51 16z m539 -154 c0 -8 -4 -15 -10 -15 -5 0 -10 7 -10 15 0
8 5 15 10 15 6 0 10 -7 10 -15z m-6392 -57 c-2 -13 -7 -23 -13 -23 -5 0 -11
10 -13 23 -2 15 2 22 13 22 11 0 15 -7 13 -22z m4962 -39 c0 -5 -4 -9 -10 -9
-5 0 -10 7 -10 16 0 8 5 12 10 9 6 -3 10 -10 10 -16z m-1143 -55 c-9 -9 -28 6
-21 18 4 6 10 6 17 -1 6 -6 8 -13 4 -17z m-713 1 c-3 -8 -9 -14 -12 -13 -17 4
-92 -15 -92 -23 0 -5 -3 -8 -7 -7 -5 0 -15 -2 -23 -5 -8 -3 -37 -13 -64 -22
-27 -9 -61 -24 -75 -34 -27 -18 -110 -48 -123 -44 -9 3 -174 -79 -201 -99 -15
-12 -10 -13 40 -14 77 -2 135 -28 173 -79 14 -18 14 -19 -2 -7 -9 8 -21 11
-27 8 -5 -3 -29 3 -52 14 -24 11 -51 20 -59 20 -8 0 8 -11 36 -24 28 -13 54
-32 58 -42 6 -17 6 -17 -12 -1 -10 9 -29 17 -42 17 -23 0 -23 0 -4 -16 10 -8
14 -13 7 -10 -18 10 -25 -10 -8 -24 8 -7 15 -24 15 -39 -1 -26 -1 -25 -15 6
-18 43 -57 66 -109 66 -104 0 -165 -94 -104 -160 20 -22 57 -38 108 -46 15 -3
7 -5 -20 -6 -35 -2 -41 -4 -25 -11 18 -8 18 -9 2 -9 -24 -1 -81 23 -119 52
-55 41 -65 41 -26 2 31 -30 36 -40 27 -56 -10 -20 -49 -27 -49 -9 0 6 -5 10
-12 10 -6 0 -1 -11 12 -25 34 -36 15 -31 -34 10 -63 51 -69 43 -10 -13 27 -26
46 -44 40 -39 -16 11 -28 8 -20 -5 5 -9 2 -8 -9 1 -22 17 -34 7 -17 -14 21
-25 -13 -19 -36 6 -19 21 -88 69 -100 69 -3 0 16 -17 43 -39 26 -21 57 -49 68
-62 12 -14 2 -9 -25 13 -42 33 -101 68 -116 68 -3 0 22 -21 57 -47 36 -26 58
-48 51 -51 -8 -2 -23 5 -35 15 -32 28 -97 66 -103 60 -3 -3 5 -11 18 -18 34
-17 110 -80 104 -86 -3 -3 -28 13 -57 36 -28 22 -57 41 -63 41 -6 0 -4 -6 5
-13 8 -7 35 -29 60 -51 50 -44 24 -34 -35 13 -54 43 -58 39 -8 -12 42 -43 59
-76 22 -42 -20 18 -21 18 -35 -1 -8 -10 -15 -23 -15 -29 0 -5 -4 -4 -8 3 -6 9
-12 6 -21 -12 -14 -26 -37 -36 -86 -36 -25 0 -53 -23 -172 -143 -78 -78 -157
-156 -176 -173 -51 -44 -42 -74 39 -132 35 -26 61 -48 58 -51 -2 -3 -31 14
-64 37 -33 23 -57 36 -54 28 3 -7 27 -28 55 -45 27 -18 49 -34 49 -37 0 -2
-13 -2 -30 0 -16 2 -31 -1 -32 -5 -5 -15 -48 57 -52 87 -2 16 -7 45 -11 66 -7
34 -4 40 62 110 37 41 94 104 127 141 57 65 58 68 41 87 -17 19 -17 21 7 52
51 66 325 336 419 410 216 174 570 361 804 426 89 25 106 26 99 7z m2946 -75
c0 -5 -4 -10 -10 -10 -5 0 -10 5 -10 10 0 6 5 10 10 10 6 0 10 -4 10 -10z
m-8223 -200 c8 -44 9 -44 63 -57 30 -6 73 -15 95 -19 22 -4 33 -8 25 -10 -115
-18 -162 -29 -169 -38 -12 -15 -31 -118 -32 -180 -2 -50 -2 -50 -10 17 -5 38
-15 92 -22 120 -14 56 -13 55 -137 76 -37 6 -41 9 -20 13 14 3 52 12 84 19
l60 14 12 49 c7 27 16 79 20 115 l8 66 8 -70 c4 -38 11 -90 15 -115z m-727 85
c0 -8 -4 -15 -10 -15 -5 0 -10 7 -10 15 0 8 5 15 10 15 6 0 10 -7 10 -15z
m3920 -61 c0 -16 -16 -19 -25 -4 -8 13 4 32 16 25 5 -4 9 -13 9 -21z m3646
-31 c-10 -10 -19 5 -10 18 6 11 8 11 12 0 2 -7 1 -15 -2 -18z m-5292 -60 c4
-9 0 -23 -8 -32 -14 -13 -16 -13 -22 2 -7 20 1 47 15 47 5 0 12 -8 15 -17z
m4246 7 c0 -5 -2 -10 -4 -10 -3 0 -8 5 -11 10 -3 6 -1 10 4 10 6 0 11 -4 11
-10z m1555 -69 c7 -12 -12 -24 -25 -16 -11 7 -4 25 10 25 5 0 11 -4 15 -9z
m-4495 -111 c0 -5 -4 -10 -10 -10 -5 0 -10 5 -10 10 0 6 5 10 10 10 6 0 10 -4
10 -10z m3150 -270 c0 -5 -4 -10 -10 -10 -5 0 -10 5 -10 10 0 6 5 10 10 10 6
0 10 -4 10 -10z m-5060 -35 c0 -8 -4 -15 -10 -15 -5 0 -10 7 -10 15 0 8 5 15
10 15 6 0 10 -7 10 -15z m3313 -42 c-7 -2 -19 -2 -25 0 -7 3 -2 5 12 5 14 0
19 -2 13 -5z m4327 -42 c0 -35 22 -61 53 -62 16 -1 13 -3 -11 -10 -25 -8 -34
-17 -39 -39 -6 -32 -23 -31 -23 1 0 13 -11 25 -32 34 -25 11 -28 14 -12 15 29
0 44 19 44 57 0 18 5 33 10 33 6 0 10 -13 10 -29z m-3920 15 c0 -2 -8 -10 -17
-17 -16 -13 -17 -12 -4 4 13 16 21 21 21 13z m-2068 -103 c6 -8 5 -19 -2 -33
-11 -21 -12 -21 -25 -3 -9 12 -10 23 -4 35 5 9 10 27 10 40 2 22 2 22 6 -2 3
-14 9 -30 15 -37z m4213 2 c0 -23 -34 -33 -46 -14 -10 17 9 41 30 37 9 -2 16
-12 16 -23z m1315 -5 c0 -5 -7 -10 -15 -10 -8 0 -15 5 -15 10 0 6 7 10 15 10
8 0 15 -4 15 -10z m-4680 -4 c0 -2 -8 -10 -17 -17 -16 -13 -17 -12 -4 4 13 16
21 21 21 13z m-48 -38 c-8 -8 -9 -15 -1 -25 9 -10 4 -13 -26 -13 l-38 0 34 24
c38 27 49 32 31 14z m1108 -1 c0 -2 -15 -16 -32 -33 l-33 -29 29 33 c28 30 36
37 36 29z m-130 -117 c-25 -22 -49 -40 -54 -40 -4 0 14 18 40 40 63 51 72 51
14 0z m1437 -6 c8 -21 -13 -42 -28 -27 -13 13 -5 43 11 43 6 0 13 -7 17 -16z
m-2037 -99 c7 -8 8 -15 2 -15 -5 0 -15 7 -22 15 -7 8 -8 15 -2 15 5 0 15 -7
22 -15z m-3504 -92 c-11 -11 -19 6 -11 24 8 17 8 17 12 0 3 -10 2 -21 -1 -24z
m1630 -22 c-9 -14 -33 -14 -41 -1 -4 6 -1 18 6 26 11 13 14 13 27 0 8 -8 11
-19 8 -25z m-886 19 c0 -5 -2 -10 -4 -10 -3 0 -8 5 -11 10 -3 6 -1 10 4 10 6
0 11 -4 11 -10z m2658 -40 c23 -16 49 -41 58 -55 19 -29 23 -23 -104 -132 -50
-44 -67 -53 -99 -53 -33 0 -52 -11 -133 -78 -199 -163 -410 -332 -416 -332 -3
0 -2 5 2 12 9 15 -45 -23 -108 -75 -27 -21 -48 -35 -47 -30 1 8 79 78 274 243
336 285 355 303 353 330 -2 29 20 90 32 90 4 0 32 25 61 55 29 30 60 55 69 55
10 0 36 -13 58 -30z m152 -4 c0 -11 -19 -15 -25 -6 -3 5 1 10 9 10 9 0 16 -2
16 -4z m486 -104 c-18 -16 -18 -16 -6 6 6 13 14 21 18 18 3 -4 -2 -14 -12 -24z
m-4760 -15 c4 -14 1 -25 -11 -33 -23 -17 -45 -7 -45 20 0 45 42 56 56 13z
m8360 -98 c10 -17 -13 -36 -27 -22 -12 12 -4 33 11 33 5 0 12 -5 16 -11z
m-1736 -54 c0 -8 -6 -15 -14 -15 -17 0 -28 14 -19 24 12 12 33 6 33 -9z
m-3880 -75 c0 -5 -2 -10 -4 -10 -3 0 -8 5 -11 10 -3 6 -1 10 4 10 6 0 11 -4
11 -10z m1718 -27 c-24 -26 -33 -24 -24 4 3 10 15 19 26 19 19 0 19 -1 -2 -23z
m-2688 -222 c0 -10 7 -24 15 -31 8 -7 15 -16 15 -21 0 -5 -7 -9 -15 -9 -8 0
-15 -9 -15 -20 0 -11 -4 -20 -10 -20 -5 0 -10 6 -10 14 0 7 -10 21 -22 29 -20
14 -20 16 -5 16 11 1 20 12 24 31 6 33 23 41 23 11z m4698 8 c-2 -6 -8 -10
-13 -10 -5 0 -11 4 -13 10 -2 6 4 11 13 11 9 0 15 -5 13 -11z m-643 -344 c9
-63 18 -122 21 -130 4 -8 22 -19 43 -24 95 -25 160 -40 204 -46 57 -8 62 -25
7 -25 -39 0 -239 -35 -247 -44 -14 -14 -37 -197 -43 -351 -3 -99 -8 -164 -9
-145 -1 19 -6 98 -11 175 -9 147 -43 321 -63 323 -7 0 -41 8 -77 16 -36 8 -99
18 -140 22 -41 3 -79 9 -85 12 -13 8 30 20 75 21 42 1 231 49 244 61 12 12 45
293 47 400 l2 85 8 -117 c4 -64 15 -169 24 -233z m2105 290 c0 -8 -7 -15 -15
-15 -8 0 -15 7 -15 15 0 8 7 15 15 15 8 0 15 -7 15 -15z m-7082 -33 c2 -7 -3
-12 -12 -12 -9 0 -16 7 -16 16 0 17 22 14 28 -4z m7977 -13 c0 -7 -8 -15 -17
-17 -18 -3 -25 18 -11 32 10 10 28 1 28 -15z m-5565 -62 c0 -2 -12 -14 -27
-28 l-28 -24 24 28 c23 25 31 32 31 24z m4050 -7 c0 -5 -4 -10 -10 -10 -5 0
-10 5 -10 10 0 6 5 10 10 10 6 0 10 -4 10 -10z m-7650 -130 c0 -5 -7 -10 -16
-10 -8 0 -12 5 -9 10 3 6 10 10 16 10 5 0 9 -4 9 -10z m7920 0 c0 -5 -4 -10
-10 -10 -5 0 -10 5 -10 10 0 6 5 10 10 10 6 0 10 -4 10 -10z m-3290 -160 c0
-5 -2 -10 -4 -10 -3 0 -8 5 -11 10 -3 6 -1 10 4 10 6 0 11 -4 11 -10z m-3590
-86 c0 -9 -5 -14 -12 -12 -18 6 -21 28 -4 28 9 0 16 -7 16 -16z m6410 2 c0
-20 -19 -31 -32 -18 -6 6 -7 15 -4 21 10 16 36 13 36 -3z m-4542 -67 c-2 -6
-8 -10 -13 -10 -5 0 -11 4 -13 10 -2 6 4 11 13 11 9 0 15 -5 13 -11z m5792
-39 c0 -11 -6 -20 -13 -20 -19 0 -27 10 -20 26 8 21 33 17 33 -6z m-4492 -177
c5 -18 -28 -29 -38 -12 -5 7 -6 17 -3 22 7 12 35 5 41 -10z m-1620 -97 c3 -13
-1 -17 -14 -14 -11 2 -20 11 -22 22 -3 13 1 17 14 14 11 -2 20 -11 22 -22z
m2877 -16 c-5 -8 -11 -8 -17 -2 -6 6 -7 16 -3 22 5 8 11 8 17 2 6 -6 7 -16 3
-22z m-5148 -36 c9 -23 -19 -38 -34 -17 -7 9 -10 20 -7 24 9 15 34 10 41 -7z
m1707 -12 c9 -14 -9 -31 -23 -23 -7 5 -10 14 -7 20 8 13 23 14 30 3z m6184
-149 c4 -25 -22 -37 -38 -17 -10 11 -10 17 0 29 17 20 34 14 38 -12z m-702
-80 c-10 -10 -19 5 -10 18 6 11 8 11 12 0 2 -7 1 -15 -2 -18z m1679 -44 c0 -7
-8 -15 -17 -17 -18 -3 -25 18 -11 32 10 10 28 1 28 -15z m-7670 -104 c117 -34
175 -61 271 -126 111 -74 177 -140 245 -243 112 -170 155 -329 146 -541 -3
-71 -13 -156 -21 -189 -111 -407 -478 -698 -881 -699 -285 0 -515 101 -698
306 -85 95 -148 205 -189 327 -27 84 -31 112 -36 240 -3 124 -1 158 17 233 29
122 65 208 126 302 145 225 336 353 611 410 106 22 296 13 409 -20z m2145 -5
c0 -5 -5 -10 -11 -10 -5 0 -7 5 -4 10 3 6 8 10 11 10 2 0 4 -4 4 -10z m1121
-151 c14 -26 -5 -59 -34 -59 -47 0 -63 48 -26 74 25 17 45 12 60 -15z m2354
-19 c0 -22 -29 -18 -33 3 -3 14 1 18 15 15 10 -2 18 -10 18 -18z m-7165 -46
c0 -8 -4 -12 -10 -9 -5 3 -10 10 -10 16 0 5 5 9 10 9 6 0 10 -7 10 -16z m3113
-186 c7 -21 -4 -38 -23 -38 -23 0 -32 13 -24 34 7 19 40 21 47 4z m3434 -182
c-4 -9 -13 -16 -21 -16 -19 0 -29 30 -15 47 11 12 14 12 27 -1 8 -8 12 -22 9
-30z m2310 -16 c13 0 11 -5 -8 -22 l-24 -23 -22 20 c-16 15 -18 21 -8 23 7 2
17 18 21 35 l7 32 9 -32 c5 -20 15 -33 25 -33z m-4337 30 c0 -5 -2 -10 -4 -10
-3 0 -8 5 -11 10 -3 6 -1 10 4 10 6 0 11 -4 11 -10z m4880 -170 c0 -5 -4 -10
-10 -10 -5 0 -10 5 -10 10 0 6 5 10 10 10 6 0 10 -4 10 -10z m-3430 -79 c0
-10 -52 -87 -122 -181 -53 -71 -248 -273 -256 -265 -3 3 24 33 60 67 79 77
110 119 133 181 10 26 20 45 23 42 7 -7 32 15 32 27 0 6 -9 8 -20 5 -11 -3
-18 -1 -14 4 3 5 9 9 14 9 15 0 50 33 50 47 0 15 -2 15 -24 7 -9 -3 -14 -10
-11 -15 3 -4 -8 -15 -25 -24 -16 -8 -30 -12 -30 -8 0 5 -7 0 -15 -11 -7 -10
-18 -15 -24 -11 -6 3 -11 1 -11 -6 0 -7 -3 -9 -7 -6 -3 4 -11 3 -17 -2 -6 -4
-32 -14 -58 -21 -26 -7 -57 -22 -69 -33 -12 -12 -30 -21 -39 -22 -16 -1 -51
-27 -102 -77 -28 -27 -56 -40 -91 -43 -11 -1 -22 -6 -25 -11 -10 -14 -70 -54
-80 -54 -5 0 -15 -7 -22 -15 -7 -8 -16 -13 -20 -10 -4 2 -15 -4 -25 -15 -10
-11 -21 -17 -25 -15 -4 3 -19 -4 -34 -16 l-26 -20 -23 25 c-24 25 -37 24 -53
-6 -6 -11 -14 -14 -23 -9 -18 12 53 65 159 121 47 24 121 66 165 93 108 65
404 209 485 236 111 35 170 47 170 32z m1912 -6 c0 -5 -5 -11 -11 -13 -6 -2
-11 4 -11 13 0 9 5 15 11 13 6 -2 11 -8 11 -13z m-3674 -118 c2 -12 -3 -17
-17 -17 -15 0 -21 6 -21 21 0 25 33 22 38 -4z m-1508 -136 c0 -5 -7 -11 -15
-15 -9 -3 -15 0 -15 9 0 8 7 15 15 15 8 0 15 -4 15 -9z m5705 -91 c-5 -8 -11
-8 -17 -2 -6 6 -7 16 -3 22 5 8 11 8 17 2 6 -6 7 -16 3 -22z m-2825 -104 c0
-2 -8 -10 -17 -17 -16 -13 -17 -12 -4 4 13 16 21 21 21 13z m-80 -60 c0 -2 -8
-10 -17 -17 -16 -13 -17 -12 -4 4 13 16 21 21 21 13z m2070 -121 c10 -12 10
-21 2 -40 -19 -41 -62 -25 -62 21 0 33 38 45 60 19z m1815 -13 c0 -18 -20 -15
-23 4 -3 10 1 15 10 12 7 -3 13 -10 13 -16z m-455 -88 c0 -8 -4 -14 -10 -14
-5 0 -10 9 -10 21 0 11 5 17 10 14 6 -3 10 -13 10 -21z m-8840 -59 c0 -8 -4
-15 -10 -15 -5 0 -10 7 -10 15 0 8 5 15 10 15 6 0 10 -7 10 -15z m6628 -68 c4
-21 -27 -35 -38 -17 -12 19 0 42 19 38 9 -2 17 -11 19 -21z m-3673 -78 c3 -31
12 -64 18 -73 7 -9 41 -22 77 -30 l65 -13 -63 -13 c-35 -7 -70 -19 -77 -26 -7
-8 -16 -44 -20 -81 -9 -96 -10 -96 -24 -18 -6 39 -14 77 -17 86 -5 17 -65 39
-107 39 -14 0 -29 5 -32 10 -4 6 5 10 19 10 14 0 46 5 70 12 49 13 51 17 73
148 4 25 8 36 9 25 2 -11 6 -45 9 -76z m1037 6 c0 -5 -5 -11 -11 -13 -6 -2
-11 4 -11 13 0 9 5 15 11 13 6 -2 11 -8 11 -13z m648 -111 c0 -8 -4 -12 -10
-9 -5 3 -10 10 -10 16 0 5 5 9 10 9 6 0 10 -7 10 -16z m1280 -94 c0 -5 -4 -10
-10 -10 -5 0 -10 5 -10 10 0 6 5 10 10 10 6 0 10 -4 10 -10z m2390 -10 c0 -5
-4 -10 -10 -10 -5 0 -10 5 -10 10 0 6 5 10 10 10 6 0 10 -4 10 -10z m-1174
-117 c-10 -10 -19 5 -10 18 6 11 8 11 12 0 2 -7 1 -15 -2 -18z m-5036 -9 c0
-17 -22 -14 -28 4 -2 7 3 12 12 12 9 0 16 -7 16 -16z m6970 -36 c0 -9 4 -18 9
-20 5 -1 3 -12 -5 -22 -13 -19 -14 -19 -34 -1 -18 16 -19 20 -5 27 8 5 15 21
15 36 0 21 2 24 10 12 5 -8 10 -22 10 -32z m-1275 -37 c3 -5 1 -12 -5 -16 -5
-3 -10 1 -10 9 0 18 6 21 15 7z m-3525 -66 c0 -8 -4 -15 -10 -15 -5 0 -10 7
-10 15 0 8 5 15 10 15 6 0 10 -7 10 -15z m-4080 -96 c0 -20 -15 -26 -25 -9 -9
15 3 43 15 35 5 -3 10 -15 10 -26z m6348 -42 c2 -11 -3 -17 -17 -17 -23 0 -35
15 -26 31 10 15 39 6 43 -14z m-1713 -105 c-8 -9 -25 20 -18 31 3 5 10 2 15
-7 6 -10 7 -20 3 -24z m-4045 -1 c0 -6 -4 -13 -10 -16 -5 -3 -10 1 -10 9 0 9
5 16 10 16 6 0 10 -4 10 -9z m410 -145 c-13 -13 -35 7 -25 24 5 8 11 8 21 -1
10 -8 12 -15 4 -23z m4870 24 c0 -5 -4 -10 -10 -10 -5 0 -10 5 -10 10 0 6 5
10 10 10 6 0 10 -4 10 -10z m1430 -65 c0 -8 -7 -15 -15 -15 -8 0 -15 7 -15 15
0 8 7 15 15 15 8 0 15 -7 15 -15z m1028 -11 c2 -11 -4 -27 -13 -34 -13 -11
-19 -11 -31 2 -13 13 -14 20 -4 37 14 27 44 24 48 -5z m-4306 -49 c8 -19 8
-29 0 -37 -16 -16 -42 -2 -42 25 0 43 24 50 42 12z m1163 -35 c-5 -8 -11 -8
-17 -2 -6 6 -7 16 -3 22 5 8 11 8 17 2 6 -6 7 -16 3 -22z m4092 -6 c-9 -9 -28
6 -21 18 4 6 10 6 17 -1 6 -6 8 -13 4 -17z m-6885 -109 c0 -5 -5 -11 -11 -13
-6 -2 -11 4 -11 13 0 9 5 15 11 13 6 -2 11 -8 11 -13z m893 -5 c3 -5 1 -10 -4
-10 -6 0 -11 5 -11 10 0 6 2 10 4 10 3 0 8 -4 11 -10z m-3100 -51 c4 -5 4 -21
1 -35 -5 -19 -12 -25 -29 -22 -37 5 -36 68 2 68 11 0 23 -5 26 -11z m1385
-118 c0 -6 -4 -13 -10 -16 -5 -3 -10 1 -10 9 0 9 5 16 10 16 6 0 10 -4 10 -9z
m7430 -61 c0 -5 -4 -10 -10 -10 -5 0 -10 5 -10 10 0 6 5 10 10 10 6 0 10 -4
10 -10z m-3210 -40 c0 -5 -5 -10 -11 -10 -5 0 -7 5 -4 10 3 6 8 10 11 10 2 0
4 -4 4 -10z m1431 -6 c264 -45 520 -197 670 -397 66 -88 153 -250 164 -302 3
-16 -6 -3 -19 30 -44 108 -155 277 -231 350 -50 48 -93 85 -100 85 -2 0 -15
10 -28 23 -30 27 -113 75 -103 58 4 -6 2 -11 -3 -11 -6 0 -11 5 -11 10 0 6
-12 10 -26 10 -20 0 -25 4 -20 16 3 8 2 12 -4 9 -6 -3 -10 0 -10 7 0 9 -3 9
-10 -2 -8 -13 -10 -12 -10 3 0 10 -5 15 -11 12 -5 -4 -26 1 -45 10 -20 9 -42
14 -50 11 -8 -3 -13 -2 -10 3 3 5 -4 9 -17 9 -12 0 -38 3 -57 6 -71 10 -116 9
-138 -3 -18 -10 -25 -9 -38 4 -19 19 -28 19 -21 1 3 -8 -2 -20 -11 -28 -16
-12 -16 -11 -2 6 13 17 13 19 0 14 -8 -3 -20 2 -25 9 -9 12 -15 11 -35 -7 -18
-16 -25 -17 -32 -8 -5 10 -8 8 -8 -4 0 -10 5 -18 11 -18 5 0 7 -5 4 -10 -3 -6
-16 -8 -28 -5 -12 3 -31 -1 -42 -9 l-20 -15 20 -1 c17 0 17 -2 5 -10 -20 -13
-33 -13 -25 0 3 6 -1 10 -10 10 -9 0 -13 -4 -10 -10 3 -5 0 -7 -9 -4 -8 3 -12
12 -9 20 3 9 12 13 22 9 12 -5 13 -3 4 6 -9 9 -16 8 -32 -3 -12 -8 -18 -18
-14 -21 7 -7 -18 -11 -51 -7 -11 1 -17 -3 -14 -12 3 -7 17 -12 32 -12 15 1 23
-3 19 -7 -5 -5 -30 -9 -55 -10 -26 -1 -53 -6 -60 -11 -8 -6 0 -8 25 -6 20 2
37 1 37 -3 0 -8 -37 -19 -64 -19 -20 0 -66 -43 -66 -62 0 -6 -3 -8 -7 -5 -3 4
-15 -1 -25 -10 -17 -15 -20 -15 -28 -3 -8 13 -10 12 -10 -2 0 -9 6 -19 13 -21
6 -3 2 -6 -11 -6 -13 -1 -20 -5 -17 -11 4 -6 12 -7 18 -3 8 5 8 2 0 -9 -7 -8
-10 -17 -7 -21 3 -3 1 -14 -6 -24 -10 -16 -10 -16 -5 4 5 18 3 22 -9 17 -9 -3
-13 -10 -10 -15 3 -5 0 -9 -5 -9 -6 0 -11 -5 -11 -11 0 -5 6 -7 13 -3 7 5 6 1
-3 -10 -8 -10 -16 -14 -18 -8 -1 5 -12 8 -23 5 -20 -6 -20 -6 2 -29 12 -13 30
-24 38 -25 14 0 14 -1 1 -6 -8 -4 -21 -13 -28 -22 -11 -14 -11 -14 -6 2 5 15
1 17 -35 13 -23 -2 -44 -6 -47 -9 -3 -3 -13 -3 -22 -1 -13 4 -12 2 2 -6 12 -8
21 -9 25 -2 4 6 15 6 31 0 24 -10 24 -11 5 -18 -11 -4 -23 -6 -27 -4 -4 3 -9
0 -13 -5 -3 -6 4 -8 17 -6 12 3 25 0 29 -7 4 -6 15 -8 25 -4 24 10 125 13 130
5 7 -13 -182 -31 -265 -26 -73 5 -80 4 -46 -5 22 -6 42 -12 44 -14 9 -8 -32
-43 -43 -37 -7 4 -7 2 1 -7 9 -9 16 -7 34 12 13 12 23 27 21 31 -1 4 6 3 17
-2 10 -6 22 -7 26 -3 5 4 5 1 1 -6 -4 -7 -12 -9 -18 -6 -7 5 -9 1 -5 -9 5 -12
1 -17 -14 -17 -22 0 -70 -50 -62 -64 3 -4 9 -2 14 5 6 10 9 10 9 2 0 -8 15
-11 40 -10 22 1 40 5 40 9 0 4 -5 8 -12 8 -6 0 -8 3 -4 7 4 5 14 -1 22 -11 10
-14 17 -17 25 -9 6 6 24 8 42 4 37 -8 44 -8 76 3 14 5 27 4 35 -4 8 -8 7 -10
-7 -4 -9 3 -24 1 -32 -6 -8 -7 -31 -12 -52 -12 -21 0 -67 -6 -103 -13 -43 -9
-70 -10 -82 -4 -14 7 -20 6 -24 -6 -6 -14 -8 -14 -25 1 -11 9 -19 15 -19 11 0
-3 -3 -14 -6 -24 -5 -15 -4 -16 5 -3 8 12 10 6 8 -25 -2 -39 -16 -65 -35 -65
-6 0 -12 -7 -16 -15 -6 -16 26 -39 39 -27 5 4 5 1 0 -6 -4 -8 -17 -12 -31 -9
-14 2 -24 -1 -24 -7 0 -6 -7 -2 -15 8 -8 11 -15 15 -15 9 0 -7 8 -19 18 -29
16 -17 16 -17 -4 -12 -13 3 -21 1 -21 -8 0 -17 -1 -17 32 -4 14 5 23 14 20 20
-4 6 1 7 11 3 15 -5 15 -7 0 -15 -18 -10 -22 -38 -6 -38 6 0 10 -5 10 -11 0
-5 -6 -7 -12 -4 -7 4 -5 0 5 -8 17 -14 17 -15 -2 -20 -11 -2 -23 -1 -28 4 -11
11 -54 -1 -47 -13 3 -5 12 -7 20 -4 8 3 14 3 14 0 0 -2 -10 -9 -22 -14 -22 -8
-22 -9 5 -9 15 -1 27 3 27 9 0 5 11 9 25 8 22 -2 25 -11 4 -14 -5 -1 -15 -2
-21 -3 -8 -1 -5 -7 6 -16 23 -18 14 -20 -16 -4 -16 8 -19 8 -16 -2 5 -14 15
-16 108 -23 36 -3 66 -5 68 -5 2 -1 1 -5 -2 -10 -7 -10 99 -19 117 -10 7 3 26
3 42 -1 28 -5 26 -6 -19 -13 -26 -4 -52 -4 -57 -1 -5 3 -9 0 -9 -5 0 -13 -205
-7 -265 8 -22 6 -41 8 -44 6 -6 -7 43 -23 53 -18 4 3 5 -4 1 -16 -6 -20 7 -28
39 -22 5 1 6 -5 3 -13 -6 -15 1 -16 175 -15 25 0 48 -4 51 -8 3 -4 -25 -8 -61
-9 -158 -3 -192 -7 -179 -23 9 -12 9 -13 0 -7 -8 4 -13 2 -13 -5 0 -7 8 -9 21
-6 16 4 18 3 9 -8 -6 -7 -20 -11 -33 -7 -32 7 -18 -3 21 -16 18 -6 30 -7 27
-2 -3 5 -1 11 5 15 5 3 10 0 10 -8 0 -18 24 -39 34 -30 12 12 44 10 39 -3 -3
-9 5 -13 24 -12 107 2 187 -3 171 -12 -14 -9 -254 -22 -351 -20 -17 0 -26 -4
-22 -10 3 -5 12 -10 20 -10 8 0 17 -4 20 -10 3 -6 -1 -7 -9 -4 -11 4 -16 0
-16 -15 0 -21 8 -24 63 -23 16 0 27 -5 27 -13 0 -19 -17 -28 -23 -13 -3 10
-10 8 -25 -6 -24 -21 -72 -30 -72 -14 0 6 9 8 20 5 10 -3 24 1 30 8 8 9 5 12
-12 10 -13 -1 -30 -3 -40 -4 -25 -2 -10 -38 19 -46 24 -6 25 -7 7 -20 -18 -13
-18 -14 1 -20 11 -4 30 -11 42 -16 13 -4 29 -6 37 -3 8 3 17 1 20 -5 4 -6 -10
-8 -39 -5 -35 3 -45 1 -45 -11 0 -9 -6 -12 -17 -8 -14 5 -16 3 -6 -7 6 -7 25
-13 41 -14 17 -1 28 -5 25 -9 -2 -4 -21 -5 -41 -3 l-37 6 33 -12 c17 -6 32
-17 32 -24 0 -8 5 -14 10 -14 6 0 10 5 10 10 0 6 12 10 28 9 l27 -1 -25 -7
c-14 -4 -26 -15 -28 -24 -3 -14 5 -17 40 -19 l43 -1 -45 -6 c-25 -4 -79 -7
-120 -6 l-75 0 -52 100 c-49 95 -103 263 -103 321 0 13 -4 24 -9 24 -26 0
-235 -152 -302 -220 -80 -80 -96 -115 -72 -150 11 -15 11 -20 2 -20 -50 0 134
-77 216 -91 73 -12 357 -14 460 -4 459 48 1123 270 1625 544 41 23 66 34 55
26 -64 -51 -442 -241 -598 -302 -23 -9 -47 -20 -53 -24 -6 -5 -42 -18 -80 -30
-38 -12 -101 -36 -141 -55 -39 -18 -97 -40 -130 -49 -32 -9 -78 -24 -103 -32
-25 -8 -52 -16 -60 -18 -35 -7 -107 -27 -130 -35 -35 -14 -382 -73 -407 -71
-22 3 -52 3 -233 1 -269 -2 -454 32 -517 95 -39 39 -40 54 -8 123 43 93 226
251 395 341 66 35 80 47 80 67 0 13 -4 24 -8 24 -13 0 -229 -126 -318 -186
-122 -81 -267 -249 -233 -270 6 -3 16 0 21 7 8 12 9 11 5 -1 -2 -8 -10 -15
-18 -15 -14 0 -27 -19 -28 -42 -1 -7 6 -13 15 -13 9 0 12 5 8 12 -4 7 -3 8 4
4 6 -4 9 -13 6 -21 -4 -8 -11 -12 -17 -8 -6 4 -7 1 -2 -7 4 -7 2 -16 -6 -22
-10 -7 -8 -8 7 -3 23 6 40 -17 27 -38 -4 -7 2 -5 12 3 17 14 18 13 12 -2 -3
-10 -5 -18 -3 -18 3 0 13 -3 23 -7 16 -6 17 -5 3 12 -14 17 -14 18 9 5 22 -11
23 -14 8 -25 -9 -6 -14 -15 -10 -18 10 -10 25 -8 19 2 -11 18 28 22 41 5 9
-12 13 -14 13 -4 0 10 4 10 18 -2 9 -8 31 -18 47 -22 17 -4 38 -9 48 -12 9 -3
17 -1 17 5 0 6 -3 10 -7 10 -20 -3 -56 2 -50 7 8 9 232 -17 235 -27 5 -12 122
-11 122 1 0 6 10 10 23 9 21 0 21 -1 2 -9 -19 -8 89 -5 194 5 67 6 304 43 416
65 363 71 1000 304 1285 470 46 27 80 42 80 36 0 -8 -139 -86 -225 -126 -138
-65 -319 -143 -430 -185 -55 -21 -122 -47 -150 -57 -259 -100 -804 -226 -1081
-249 -170 -14 -433 -7 -533 15 -103 23 -195 68 -220 110 -82 133 78 327 439
531 137 78 174 104 177 125 3 20 2 20 -40 -1 -122 -63 -345 -198 -427 -261
-58 -44 -188 -182 -218 -232 -40 -65 -51 -136 -29 -188 28 -66 153 -130 312
-159 138 -26 537 -12 753 26 582 101 1026 241 1496 473 115 56 211 100 214 98
2 -3 14 -1 26 5 20 10 20 9 3 -5 -11 -8 -26 -12 -35 -9 -10 4 -13 2 -8 -5 5
-8 -1 -12 -18 -12 -16 0 -25 -5 -24 -12 2 -7 -4 -14 -12 -14 -8 -1 -21 -2 -28
-3 -7 0 -11 -5 -7 -10 6 -11 -32 -26 -54 -22 -7 1 -10 -2 -7 -7 5 -9 -129 -75
-147 -72 -4 0 -15 -6 -23 -15 -9 -8 -21 -15 -28 -15 -13 0 -44 -13 -186 -77
-407 -184 -944 -320 -1478 -374 -79 -8 -187 -10 -305 -6 -181 7 -267 19 -341
50 -21 9 -42 14 -47 12 -4 -3 -35 21 -69 55 -57 57 -60 62 -60 109 0 87 34
154 129 254 140 147 278 245 557 397 l101 55 6 75 c14 170 93 386 194 529 57
81 168 197 248 260 151 120 367 210 560 234 79 10 241 5 326 -9z m-181 -99 c0
-2 -7 -5 -15 -9 -9 -3 -15 0 -15 9 0 9 6 12 15 9 8 -4 15 -7 15 -9z m-4132
-28 c2 -10 -3 -17 -12 -17 -10 0 -16 9 -16 21 0 24 23 21 28 -4z m630 -40 c2
-12 -3 -17 -17 -17 -12 0 -21 6 -21 13 0 31 32 34 38 4z m1422 -62 c0 -8 -7
-15 -15 -15 -8 0 -15 7 -15 15 0 8 7 15 15 15 8 0 15 -7 15 -15z m-4066 -28
c8 -12 7 -21 -6 -33 -20 -20 -38 -11 -38 20 0 39 23 46 44 13z m5807 -4 c-12
-20 -14 -14 -5 12 4 9 9 14 11 11 3 -2 0 -13 -6 -23z m-21 -28 c0 -8 -4 -15
-8 -15 -5 0 -9 7 -9 15 0 8 4 15 9 15 4 0 8 -7 8 -15z m-40 -19 c0 -3 -4 -8
-10 -11 -5 -3 -10 -1 -10 4 0 6 5 11 10 11 6 0 10 -2 10 -4z m-20 -76 c0 -5
-7 -10 -16 -10 -8 0 -12 5 -9 10 3 6 10 10 16 10 5 0 9 -4 9 -10z m-6722 -32
c-6 -18 -28 -21 -28 -4 0 9 7 16 16 16 9 0 14 -5 12 -12z m4612 -39 c0 -30 18
-59 38 -60 12 0 11 -3 -6 -9 -12 -5 -25 -16 -27 -25 -16 -49 -17 -50 -27 -16
-5 20 -17 35 -29 38 -18 5 -18 7 6 29 14 13 25 34 25 49 0 15 4 24 10 20 6 -3
10 -15 10 -26z m-2388 -22 c148 -73 239 -217 237 -377 0 -30 -7 -73 -14 -95
l-14 -40 7 40 c4 22 6 76 6 121 -1 70 -6 90 -34 148 -38 76 -107 147 -122 125
-7 -11 -8 -9 -6 6 2 14 -2 19 -14 17 -10 -2 -28 2 -40 9 -18 9 -24 8 -34 -6
-7 -9 -17 -14 -23 -10 -6 3 -11 1 -11 -5 0 -6 -4 -9 -9 -5 -5 3 -13 0 -17 -6
-4 -8 -3 -9 4 -5 17 10 15 -9 -2 -23 -11 -10 -15 -9 -18 4 -3 15 -5 15 -23 0
-16 -12 -17 -14 -2 -9 27 10 20 -10 -10 -24 -16 -7 -31 -8 -36 -3 -12 12 -48
1 -40 -11 3 -6 0 -9 -8 -6 -8 3 -19 -2 -26 -11 -17 -22 -16 -32 2 -25 8 4 12
10 9 15 -3 5 -1 9 5 9 18 0 21 -18 5 -34 -8 -9 -20 -16 -25 -16 -6 0 -7 -4 -4
-10 3 -6 -1 -7 -10 -4 -9 4 -25 -4 -40 -20 -13 -14 -20 -26 -15 -26 6 0 10 -7
10 -16 0 -8 4 -13 9 -10 5 3 14 0 20 -8 19 -23 -11 -26 -31 -4 -10 12 -19 15
-23 8 -9 -14 4 -32 17 -24 7 4 8 2 4 -5 -4 -6 -12 -9 -17 -6 -5 4 -9 1 -9 -6
0 -9 -4 -8 -15 1 -8 6 -20 10 -27 7 -8 -4 -7 -6 5 -6 24 -1 21 -18 -5 -25 -19
-5 -20 -8 -8 -15 8 -6 11 -13 6 -18 -4 -4 -12 0 -17 10 -6 9 -19 17 -30 17
-11 0 -17 5 -14 10 7 11 -6 13 -29 4 -23 -9 -20 -24 4 -19 11 2 22 0 25 -6 4
-5 2 -9 -4 -9 -6 0 -8 -8 -5 -17 5 -15 4 -16 -5 -3 -10 13 -12 13 -21 0 -5 -8
-10 -18 -10 -22 0 -12 27 -9 42 5 7 6 20 13 28 15 8 1 4 -7 -10 -18 -22 -17
-21 -25 4 -21 11 2 36 -32 30 -41 -3 -4 -14 -13 -26 -19 -12 -7 -18 -7 -14 -1
3 6 0 13 -6 16 -7 4 -3 4 10 2 12 -2 22 1 22 7 0 7 -11 12 -24 12 -13 0 -22
-3 -19 -7 2 -5 -1 -8 -6 -8 -6 0 -10 -3 -10 -7 4 -22 -3 -25 -16 -7 -12 16
-12 12 1 -29 9 -26 19 -45 23 -43 4 3 6 -8 5 -24 -1 -16 1 -29 5 -28 19 2 24
-3 11 -12 -13 -8 -12 -10 3 -10 9 0 17 -7 17 -15 0 -8 7 -15 15 -15 8 0 15 -5
15 -11 0 -5 5 -7 12 -3 6 4 8 3 5 -3 -7 -11 31 -32 96 -53 20 -6 74 -12 120
-13 77 -2 79 -2 38 -11 -95 -20 -250 30 -329 107 -98 95 -138 199 -129 333 10
166 109 295 271 355 78 29 235 22 308 -14z m4462 16 c9 4 16 2 16 -3 0 -11
-69 -10 -76 2 -3 4 2 5 10 2 10 -4 16 -1 16 7 0 12 2 12 9 0 5 -8 16 -11 25
-8z m1403 1 c-3 -3 -12 -4 -19 -1 -8 3 -5 6 6 6 11 1 17 -2 13 -5z m133 -60
c-52 -12 -120 -20 -113 -14 4 5 22 10 38 13 36 5 96 6 75 1z m-6003 -19 c0 -8
-4 -12 -9 -9 -5 3 -6 10 -3 15 9 13 12 11 12 -6z m5986 -42 c-7 -2 -21 -2 -30
0 -10 3 -4 5 12 5 17 0 24 -2 18 -5z m-4183 -23 c0 -5 -4 -10 -10 -10 -5 0
-10 5 -10 10 0 6 5 10 10 10 6 0 10 -4 10 -10z m2580 -4 c0 -3 -4 -8 -10 -11
-5 -3 -10 -1 -10 4 0 6 5 11 10 11 6 0 10 -2 10 -4z m-4470 -32 c0 -7 -4 -16
-10 -19 -5 -3 -10 -1 -10 5 0 6 -4 9 -9 6 -5 -3 -11 0 -14 7 -3 8 4 13 19 13
13 0 24 -6 24 -12z m4407 0 c-3 -3 -12 -4 -19 -1 -8 3 -5 6 6 6 11 1 17 -2 13
-5z m-4461 -36 c-21 -8 -25 -13 -15 -19 10 -6 7 -9 -11 -9 l-25 1 24 19 c13
11 31 20 40 19 9 0 3 -5 -13 -11z m1194 -13 c0 -8 -4 -15 -10 -15 -5 0 -10 7
-10 15 0 8 5 15 10 15 6 0 10 -7 10 -15z m-1250 -15 c0 -5 -10 -10 -22 -10
-19 0 -20 2 -8 10 19 13 30 13 30 0z m6775 -112 c-59 -65 -234 -228 -246 -228
-5 0 21 27 58 59 38 32 102 93 143 135 81 83 105 101 45 34z m-3370 4 c0 -18
-20 -15 -23 4 -3 10 1 15 10 12 7 -3 13 -10 13 -16z m939 -151 c4 -5 -3 -7
-14 -4 -23 6 -26 13 -6 13 8 0 17 -4 20 -9z m-4509 -21 c3 -5 -1 -10 -10 -10
-9 0 -13 5 -10 10 3 6 8 10 10 10 2 0 7 -4 10 -10z m7545 0 c0 -5 -4 -10 -10
-10 -5 0 -10 5 -10 10 0 6 5 10 10 10 6 0 10 -4 10 -10z m-6999 -69 c-18 -27
-38 -55 -46 -61 -8 -7 5 17 28 52 23 36 44 63 46 62 2 -2 -11 -26 -28 -53z
m3964 49 c3 -6 -1 -7 -9 -4 -18 7 -21 14 -7 14 6 0 13 -4 16 -10z m-6356 -29
c7 -13 6 -23 -3 -36 -16 -22 -36 -12 -36 19 0 39 22 49 39 17z m446 9 c3 -5 1
-10 -4 -10 -6 0 -11 5 -11 10 0 6 2 10 4 10 3 0 8 -4 11 -10z m8075 -40 c0 -5
-21 -23 -47 -40 l-48 -32 45 41 c50 45 50 45 50 31z m-4110 -60 c0 -5 -4 -10
-10 -10 -5 0 -10 5 -10 10 0 6 5 10 10 10 6 0 10 -4 10 -10z m2235 -10 c3 -5
1 -10 -4 -10 -6 0 -11 5 -11 10 0 6 2 10 4 10 3 0 8 -4 11 -10z m1400 -26
c-26 -20 -55 -36 -55 -30 0 5 63 46 70 46 3 -1 -4 -8 -15 -16z m-5745 1 c0 -8
-82 -65 -93 -65 -5 0 13 15 39 34 56 39 54 38 54 31z m1477 -27 c-3 -7 -5 -2
-5 12 0 14 2 19 5 13 2 -7 2 -19 0 -25z m4578 -3 c-16 -14 -45 -32 -62 -40
-18 -9 -44 -26 -57 -38 -25 -23 -146 -92 -146 -83 0 2 18 15 40 27 21 12 37
26 34 30 -3 5 3 6 13 2 10 -3 15 -3 11 2 -6 6 94 78 112 80 3 1 21 11 40 23
46 29 52 27 15 -3z m-7317 -6 c-2 -6 -8 -10 -13 -10 -5 0 -11 4 -13 10 -2 6 4
11 13 11 9 0 15 -5 13 -11z m1142 -39 c-8 -5 -22 -9 -30 -9 -10 0 -8 3 5 9 27
12 43 12 25 0z m1624 -390 c9 -52 16 -99 16 -103 0 -5 4 -6 9 -2 5 3 12 1 16
-5 3 -5 0 -10 -7 -11 -47 -2 192 -58 260 -61 47 -1 47 -1 7 -5 -80 -7 -264
-45 -273 -57 -18 -21 -44 -201 -52 -346 l-7 -145 -1 115 c-3 160 -36 354 -65
378 -6 5 -66 18 -132 27 -66 9 -124 20 -128 25 -5 4 18 10 50 14 80 9 213 49
223 67 15 27 50 306 52 411 1 96 2 93 9 -52 4 -85 14 -198 23 -250z m5353 258
c-3 -8 -6 -5 -6 6 -1 11 2 17 5 13 3 -3 4 -12 1 -19z m-990 -40 c-3 -8 -6 -5
-6 6 -1 11 2 17 5 13 3 -3 4 -12 1 -19z m-13 -52 c-3 -15 -8 -25 -11 -23 -2 3
-1 17 3 31 3 15 8 25 11 23 2 -3 1 -17 -3 -31z m-1760 -17 c-8 -13 -21 -11
-27 5 -4 10 0 12 14 9 10 -3 16 -9 13 -14z m40 3 c3 -5 -1 -9 -9 -9 -8 0 -15
4 -15 9 0 4 4 8 9 8 6 0 12 -4 15 -8z m-3424 -12 c0 -5 -4 -10 -10 -10 -5 0
-10 5 -10 10 0 6 5 10 10 10 6 0 10 -4 10 -10z m5121 -37 c-12 -20 -14 -14 -5
12 4 9 9 14 11 11 3 -2 0 -13 -6 -23z m-3456 -13 c0 -22 -29 -18 -33 3 -3 14
1 18 15 15 10 -2 18 -10 18 -18z m823 -5 c-6 -14 -13 -23 -15 -21 -5 5 15 46
22 46 3 0 -1 -11 -7 -25z m2602 -54 c-28 -56 -35 -52 -8 4 12 24 23 43 26 41
2 -2 -6 -22 -18 -45z m-1826 -27 c3 -8 2 -12 -4 -9 -6 3 -10 10 -10 16 0 14 7
11 14 -7z m2326 -79 c0 -8 -7 -15 -15 -15 -8 0 -15 7 -15 15 0 8 7 15 15 15 8
0 15 -7 15 -15z m-7230 -23 c0 -13 -12 -22 -22 -16 -10 6 -1 24 13 24 5 0 9
-4 9 -8z m1100 -32 c0 -5 -4 -10 -10 -10 -5 0 -10 5 -10 10 0 6 5 10 10 10 6
0 10 -4 10 -10z m5502 -37 c-31 -43 -172 -176 -222 -209 -100 -68 -92 -53 12
20 37 26 102 85 145 132 43 46 79 84 81 84 2 0 -6 -12 -16 -27z m-2365 -9 c-3
-3 -12 -4 -19 -1 -8 3 -5 6 6 6 11 1 17 -2 13 -5z m-3800 -56 c-3 -7 -5 -2 -5
12 0 14 2 19 5 13 2 -7 2 -19 0 -25z m4180 -4 c-3 -3 -12 -4 -19 -1 -8 3 -5 6
6 6 11 1 17 -2 13 -5z m577 -143 c4 -5 -3 -7 -14 -4 -23 6 -26 13 -6 13 8 0
17 -4 20 -9z m-5858 -208 l16 -92 88 -20 c48 -12 97 -21 109 -21 11 0 21 -4
21 -10 0 -5 -15 -10 -34 -10 -58 0 -176 -31 -185 -49 -15 -29 -31 -146 -33
-242 l-1 -94 -9 95 c-5 52 -17 131 -26 174 l-17 80 -70 18 c-38 9 -89 18 -112
18 -68 0 -50 15 35 28 42 6 93 16 113 22 l36 10 16 93 c10 51 17 116 17 143 0
72 15 78 17 7 1 -32 10 -99 19 -150z m5804 197 c-12 -7 -11 -10 5 -16 11 -5
26 -14 34 -21 10 -10 16 -11 27 -2 7 6 19 9 26 6 7 -3 4 -6 -7 -7 -20 -1 -20
-1 -1 -15 10 -8 23 -12 28 -9 5 3 18 -2 29 -12 11 -10 19 -12 19 -6 0 7 4 12
10 12 5 0 7 -6 4 -14 -3 -7 2 -16 11 -20 10 -4 14 -2 9 5 -4 7 -1 10 7 7 8 -3
13 -11 11 -17 -1 -7 2 -10 7 -7 5 3 30 -3 55 -14 26 -11 50 -20 54 -21 4 -1
12 -3 17 -4 48 -14 126 -20 275 -19 175 0 183 -9 20 -21 -216 -17 -462 41
-653 153 -58 34 -60 36 -37 43 14 4 34 7 45 8 16 1 17 -1 5 -9z m1110 -64 c0
-2 -7 -7 -16 -10 -8 -3 -12 -2 -9 4 6 10 25 14 25 6z m-80 -41 c-14 -8 -29
-14 -35 -14 -5 0 1 6 15 14 14 8 30 14 35 14 6 0 -1 -6 -15 -14z m-113 -41
c-3 -3 -12 -4 -19 -1 -8 3 -5 6 6 6 11 1 17 -2 13 -5z m-40 -10 c-3 -3 -12 -4
-19 -1 -8 3 -5 6 6 6 11 1 17 -2 13 -5z m-50 -10 c-3 -3 -12 -4 -19 -1 -8 3
-5 6 6 6 11 1 17 -2 13 -5z m1671 -50 c-4 -23 -18 -24 -32 -1 -8 14 -8 20 4
27 18 11 33 -2 28 -26z m-6238 -5 c0 -5 -7 -9 -15 -9 -15 0 -20 12 -9 23 8 8
24 -1 24 -14z m-2900 -169 c0 -5 -4 -10 -10 -10 -5 0 -10 5 -10 10 0 6 5 10
10 10 6 0 10 -4 10 -10z m1861 -73 c-1 -12 -15 -9 -19 4 -3 6 1 10 8 8 6 -3
11 -8 11 -12z m6379 -33 c0 -17 -22 -14 -28 4 -2 7 3 12 12 12 9 0 16 -7 16
-16z m-2460 -4 c0 -5 -2 -10 -4 -10 -3 0 -8 5 -11 10 -3 6 -1 10 4 10 6 0 11
-4 11 -10z m3035 -90 c-5 -8 -11 -8 -17 -2 -6 6 -7 16 -3 22 5 8 11 8 17 2 6
-6 7 -16 3 -22z m-4225 -48 c0 -13 -12 -22 -22 -16 -10 6 -1 24 13 24 5 0 9
-4 9 -8z m736 -23 c8 -14 -18 -31 -30 -19 -9 9 0 30 14 30 5 0 12 -5 16 -11z
m-2216 -135 c0 -8 -5 -12 -10 -9 -6 4 -8 11 -5 16 9 14 15 11 15 -7z m-717
-101 c7 -16 7 -30 -1 -48 -14 -30 -29 -31 -61 -4 l-24 20 21 15 c12 8 24 31
28 52 7 36 7 36 17 12 5 -14 14 -35 20 -47z m17 57 c0 -5 -4 -10 -10 -10 -5 0
-10 5 -10 10 0 6 5 10 10 10 6 0 10 -4 10 -10z m6063 -121 c34 -11 68 -27 76
-34 8 -8 -12 -3 -45 10 -58 24 -107 31 -138 19 -9 -3 -13 -10 -10 -15 5 -9
-15 -13 -46 -10 -9 1 -11 -1 -5 -6 6 -4 11 -14 13 -22 3 -12 0 -12 -11 -2 -20
16 -40 10 -50 -13 -4 -10 -13 -16 -21 -13 -20 8 -27 -3 -15 -24 7 -14 7 -19
-2 -17 -6 2 -13 -6 -15 -16 -1 -10 -9 -23 -16 -27 -7 -5 -13 -12 -13 -16 -2
-25 -18 -49 -37 -58 -31 -13 -36 -45 -9 -52 25 -6 27 -21 5 -30 -8 -3 -13 -11
-10 -18 3 -8 -2 -16 -9 -19 -9 -3 -12 -12 -9 -21 4 -9 13 -14 21 -11 11 5 11
2 2 -16 l-11 -21 -14 24 -13 24 -1 -31 c0 -23 12 -45 42 -80 24 -27 47 -52 53
-56 39 -26 43 -36 7 -17 -54 29 -118 111 -131 169 -49 212 102 416 312 419 21
1 66 -8 100 -20z m807 -70 c0 -5 -7 -9 -15 -9 -15 0 -20 12 -9 23 8 8 24 -1
24 -14z m-2280 -89 c0 -5 -4 -10 -10 -10 -5 0 -10 5 -10 10 0 6 5 10 10 10 6
0 10 -4 10 -10z m-5680 -15 c0 -8 -4 -15 -10 -15 -5 0 -10 7 -10 15 0 8 5 15
10 15 6 0 10 -7 10 -15z m-1238 -100 c0 -5 -5 -11 -11 -13 -6 -2 -11 4 -11 13
0 9 5 15 11 13 6 -2 11 -8 11 -13z m5739 -101 c6 -7 29 -16 52 -20 l42 -7 -39
-9 c-53 -11 -65 -23 -73 -71 -5 -33 -8 -37 -14 -22 -4 11 -8 32 -8 47 -1 23
-7 29 -38 37 -21 6 -47 11 -58 12 -11 1 0 5 24 10 58 11 68 21 77 82 l8 52 8
-50 c5 -27 14 -55 19 -61z m-1461 35 c0 -14 -5 -19 -17 -17 -26 5 -29 38 -4
38 15 0 21 -6 21 -21z m2175 -17 c0 -18 -20 -15 -23 4 -3 10 1 15 10 12 7 -3
13 -10 13 -16z m-5880 -91 c3 -5 1 -12 -5 -16 -5 -3 -10 1 -10 9 0 18 6 21 15
7z m6735 -41 c0 -11 -7 -20 -15 -20 -8 0 -15 9 -15 20 0 11 7 20 15 20 8 0 15
-9 15 -20z m-3730 -11 c0 -5 -4 -9 -10 -9 -5 0 -10 7 -10 16 0 8 5 12 10 9 6
-3 10 -10 10 -16z m4703 -116 c-7 -2 -19 -2 -25 0 -7 3 -2 5 12 5 14 0 19 -2
13 -5z m997 -18 c0 -8 -7 -15 -15 -15 -16 0 -20 12 -8 23 11 12 23 8 23 -8z
m-2430 -65 c0 -5 -5 -10 -11 -10 -5 0 -7 5 -4 10 3 6 8 10 11 10 2 0 4 -4 4
-10z m-6856 -9 c3 -5 0 -14 -8 -20 -10 -9 -15 -8 -19 3 -9 22 15 37 27 17z
m1696 -6 c0 -8 -4 -15 -10 -15 -5 0 -10 7 -10 15 0 8 5 15 10 15 6 0 10 -7 10
-15z m845 -185 c0 -8 -8 -16 -17 -18 -13 -2 -18 3 -18 18 0 15 5 20 18 18 9
-2 17 -10 17 -18z m5035 -121 c0 -5 -7 -9 -15 -9 -15 0 -20 12 -9 23 8 8 24
-1 24 -14z m-4409 -175 c10 -50 11 -52 54 -63 24 -6 53 -11 64 -11 12 0 21 -4
21 -10 0 -5 -9 -10 -21 -10 -11 0 -40 -5 -64 -11 -42 -11 -44 -13 -54 -61 -6
-27 -11 -66 -12 -86 -1 -28 -4 -21 -14 33 -7 39 -14 77 -14 86 -1 18 -60 39
-112 39 -43 1 -21 15 38 25 64 10 72 21 85 115 10 67 14 77 16 45 1 -22 7 -63
13 -91z m1764 91 c0 -24 -5 -31 -24 -33 -37 -6 -52 26 -25 53 25 25 49 15 49
-20z m1331 -62 c-11 -11 -19 6 -11 24 8 17 8 17 12 0 3 -10 2 -21 -1 -24z
m-2529 5 c-3 -8 -6 -5 -6 6 -1 11 2 17 5 13 3 -3 4 -12 1 -19z m-2989 -34 c4
-29 -23 -51 -43 -34 -18 15 -19 32 -3 48 18 18 42 10 46 -14z m8400 -56 c-6
-18 -28 -21 -28 -4 0 9 7 16 16 16 9 0 14 -5 12 -12z m-2058 -171 c25 -10 25
-11 3 -14 -15 -3 -26 -16 -34 -41 l-12 -37 -10 28 c-6 18 -21 34 -41 42 l-31
14 31 11 c32 11 42 30 45 80 1 16 6 7 13 -24 9 -37 18 -52 36 -59z m-2526 18
c-4 -8 -10 -12 -15 -9 -14 8 -10 24 6 24 9 0 12 -6 9 -15z m3911 -34 c3 -5 1
-12 -5 -16 -5 -3 -10 1 -10 9 0 18 6 21 15 7z m-6905 -132 c0 -25 -33 -22 -38
4 -2 12 3 17 17 17 15 0 21 -6 21 -21z m-1540 -20 c0 -24 -23 -21 -28 4 -2 10
3 17 12 17 10 0 16 -9 16 -21z m5813 -95 c8 -8 -3 -34 -14 -34 -5 0 -9 9 -9
20 0 19 11 26 23 14z m2167 -94 c0 -11 -4 -20 -9 -20 -14 0 -23 18 -16 30 10
17 25 11 25 -10z m-7660 -4 c0 -11 -19 -15 -25 -6 -3 5 1 10 9 10 9 0 16 -2
16 -4z m3700 -141 c0 -8 -7 -15 -15 -15 -16 0 -20 12 -8 23 11 12 23 8 23 -8z
m5230 5 c0 -5 -4 -10 -10 -10 -5 0 -10 5 -10 10 0 6 5 10 10 10 6 0 10 -4 10
-10z"/>
<path d="M8568 14933 c7 -3 16 -2 19 1 4 3 -2 6 -13 5 -11 0 -14 -3 -6 -6z"/>
<path d="M8001 14884 c0 -11 3 -14 6 -6 3 7 2 16 -1 19 -3 4 -6 -2 -5 -13z"/>
<path d="M7746 14705 c25 -19 40 -19 20 0 -8 8 -20 15 -27 15 -7 0 -4 -6 7
-15z"/>
<path d="M7651 14596 c12 -10 60 -16 54 -6 -3 5 -18 10 -32 10 -15 0 -24 -2
-22 -4z"/>
<path d="M7706 14493 c-6 -14 -5 -15 5 -6 7 7 10 15 7 18 -3 3 -9 -2 -12 -12z"/>
<path d="M7795 14440 c3 -5 16 -10 28 -9 21 0 21 1 2 9 -28 12 -37 12 -30 0z"/>
<path d="M7670 14410 c0 -6 7 -10 15 -10 8 0 15 2 15 4 0 2 -7 6 -15 10 -8 3
-15 1 -15 -4z"/>
<path d="M7710 14395 c0 -8 8 -11 20 -8 22 6 26 -7 8 -25 -8 -8 -8 -12 -1 -12
13 0 25 28 18 40 -9 14 -45 19 -45 5z"/>
<path d="M7660 14285 c0 -8 4 -15 10 -15 5 0 7 7 4 15 -4 8 -8 15 -10 15 -2 0
-4 -7 -4 -15z"/>
<path d="M7550 14202 c0 -4 10 -9 22 -9 18 -2 20 0 8 7 -18 12 -30 13 -30 2z"/>
<path d="M7615 14180 c27 -12 43 -12 25 0 -8 5 -22 9 -30 9 -10 0 -8 -3 5 -9z"/>
<path d="M7990 14169 c-23 -7 -23 -7 7 -8 17 -1 34 3 37 7 6 10 -10 11 -44 1z"/>
<path d="M7560 14160 c0 -5 5 -10 11 -10 5 0 7 5 4 10 -3 6 -8 10 -11 10 -2 0
-4 -4 -4 -10z"/>
<path d="M7790 14000 c19 -13 30 -13 30 0 0 6 -10 10 -22 10 -19 0 -20 -2 -8
-10z"/>
<path d="M7495 13900 c3 -5 16 -10 28 -9 21 0 21 1 2 9 -28 12 -37 12 -30 0z"/>
<path d="M7560 13899 c-13 -9 -12 -10 3 -5 9 3 17 1 17 -4 0 -6 7 -10 15 -10
8 0 15 4 15 9 0 4 12 6 28 4 21 -4 24 -2 12 6 -19 14 -71 14 -90 0z"/>
<path d="M7391 13791 c-8 -6 -9 -11 -3 -15 6 -3 14 -1 17 5 9 14 2 20 -14 10z"/>
<path d="M7288 13713 c7 -3 16 -2 19 1 4 3 -2 6 -13 5 -11 0 -14 -3 -6 -6z"/>
<path d="M7327 13699 c7 -7 15 -10 18 -7 3 3 -2 9 -12 12 -14 6 -15 5 -6 -5z"/>
<path d="M7928 13676 c-10 -7 -15 -16 -12 -19 7 -7 44 14 44 25 0 12 -13 9
-32 -6z"/>
<path d="M7940 13650 c0 -5 6 -10 13 -10 7 0 4 -7 -7 -15 -17 -13 -18 -15 -3
-15 9 0 17 3 18 8 0 4 2 15 4 25 2 9 -3 17 -11 17 -8 0 -14 -4 -14 -10z"/>
<path d="M7420 13646 c0 -2 7 -6 15 -10 8 -3 15 -1 15 4 0 6 -7 10 -15 10 -8
0 -15 -2 -15 -4z"/>
<path d="M7460 13642 c0 -6 6 -13 13 -15 6 -3 1 -6 -13 -6 -19 -1 -21 -4 -11
-10 15 -10 51 7 51 23 0 5 -3 6 -7 3 -3 -4 -12 -2 -20 4 -8 8 -13 8 -13 1z"/>
<path d="M7257 13629 c7 -7 15 -10 18 -7 3 3 -2 9 -12 12 -14 6 -15 5 -6 -5z"/>
<path d="M7530 13605 c28 -29 27 -29 27 -10 0 8 -4 12 -8 10 -4 -3 -9 2 -13
10 -3 8 -11 15 -17 15 -7 0 -2 -11 11 -25z"/>
<path d="M7490 13600 c-12 -8 -10 -10 8 -10 13 0 20 4 17 10 -7 12 -6 12 -25
0z"/>
<path d="M7240 13570 c0 -5 5 -10 11 -10 5 0 7 5 4 10 -3 6 -8 10 -11 10 -2 0
-4 -4 -4 -10z"/>
<path d="M7360 13576 c0 -2 9 -6 20 -9 11 -3 18 -1 14 4 -5 9 -34 13 -34 5z"/>
<path d="M7459 13563 c-13 -16 -12 -17 3 -4 10 7 24 11 33 8 8 -4 17 -2 20 3
11 18 -42 10 -56 -7z"/>
<path d="M7415 13560 c3 -6 -5 -10 -19 -10 -14 0 -27 -4 -30 -9 -4 -5 9 -5 30
-1 43 10 50 16 29 24 -9 3 -13 2 -10 -4z"/>
<path d="M7645 13290 c3 -5 8 -10 11 -10 2 0 4 5 4 10 0 6 -5 10 -11 10 -5 0
-7 -4 -4 -10z"/>
<path d="M7680 13276 c0 -2 7 -6 15 -10 8 -3 15 -1 15 4 0 6 -7 10 -15 10 -8
0 -15 -2 -15 -4z"/>
<path d="M7089 13103 c-13 -16 -12 -17 4 -4 16 13 21 21 13 21 -2 0 -10 -8
-17 -17z"/>
<path d="M7115 13100 c-3 -5 -1 -10 4 -10 6 0 11 5 11 10 0 6 -2 10 -4 10 -3
0 -8 -4 -11 -10z"/>
<path d="M7185 13090 c-4 -6 -3 -10 2 -9 19 3 27 -2 14 -10 -8 -5 -9 -11 -3
-15 16 -9 22 21 7 34 -9 8 -15 8 -20 0z"/>
<path d="M7250 13025 c0 -18 19 -40 26 -32 4 4 0 15 -9 24 -9 10 -17 13 -17 8z"/>
<path d="M7710 12870 c0 -5 5 -10 11 -10 5 0 7 5 4 10 -3 6 -8 10 -11 10 -2 0
-4 -4 -4 -10z"/>
<path d="M7195 12830 c4 -6 11 -8 16 -5 14 9 11 15 -7 15 -8 0 -12 -5 -9 -10z"/>
<path d="M7236 12803 c-6 -14 -5 -15 5 -6 7 7 10 15 7 18 -3 3 -9 -2 -12 -12z"/>
<path d="M7647 12339 c6 -6 40 -15 77 -22 40 -7 66 -16 66 -23 0 -24 16 -22
18 2 1 13 -4 24 -11 25 -24 1 -53 7 -97 18 -57 13 -67 14 -53 0z"/>
<path d="M2018 14730 c-16 -12 -33 -17 -44 -13 -11 4 -15 3 -11 -4 4 -6 -4
-14 -18 -17 -14 -4 -25 -13 -25 -22 0 -8 -3 -13 -7 -11 -5 2 -26 -2 -48 -10
-27 -9 -31 -12 -12 -9 22 3 25 1 16 -10 -6 -8 -16 -14 -23 -14 -16 0 -96 -34
-96 -41 0 -7 71 15 102 32 10 6 18 6 18 0 0 -5 -35 -21 -78 -37 -56 -19 -81
-34 -89 -51 -10 -20 -9 -23 10 -24 17 0 14 -3 -11 -13 -18 -6 -31 -14 -27 -17
3 -4 -2 -12 -11 -20 -15 -12 -16 -11 -9 10 5 16 4 21 -4 17 -14 -9 -15 -46 -1
-46 18 0 11 -26 -12 -46 -19 -15 -20 -16 -9 -1 8 10 9 17 3 17 -6 0 -14 -5
-17 -10 -4 -6 -11 -7 -17 -4 -7 4 -8 2 -4 -5 5 -7 -5 -17 -26 -26 l-33 -15 55
6 c30 3 58 8 62 10 4 3 8 3 8 0 0 -9 -71 -36 -96 -36 -12 0 -26 -5 -30 -12 -5
-7 -2 -9 9 -5 11 4 14 2 10 -9 -3 -8 1 -14 10 -14 8 0 17 4 19 9 2 5 9 3 15
-4 11 -11 5 -15 -28 -22 -50 -10 -55 -27 -10 -31 18 -2 31 0 28 5 -3 4 11 8
31 9 21 0 53 4 72 7 23 5 17 1 -20 -13 -30 -11 -63 -22 -72 -25 -10 -2 -26 -9
-35 -15 -17 -11 -17 -11 0 -6 9 3 17 1 17 -4 0 -6 -10 -11 -22 -11 -18 -1 -19
-2 -5 -6 10 -3 26 -1 35 3 9 4 24 8 32 9 8 2 31 6 52 9 20 4 39 3 42 -3 4 -5
-2 -10 -11 -10 -22 0 -45 -5 -58 -13 -6 -3 -27 -9 -48 -13 -20 -4 -40 -11 -43
-16 -3 -5 -10 -7 -15 -4 -5 4 -9 1 -9 -4 0 -6 -5 -11 -11 -11 -5 0 -7 4 -4 10
4 6 -1 7 -11 3 -15 -5 -15 -7 0 -15 9 -5 14 -13 11 -19 -8 -12 0 -11 66 2 30
6 72 12 94 14 l40 3 -35 -11 c-19 -6 -38 -15 -41 -19 -3 -5 -10 -8 -15 -7 -21
4 -35 -2 -29 -11 3 -5 -1 -10 -9 -10 -9 0 -16 -4 -16 -9 0 -10 27 -9 70 2 14
4 7 -2 -15 -13 l-40 -20 45 5 c25 3 54 8 65 11 13 3 10 -1 -8 -11 -15 -9 -53
-20 -85 -25 -76 -14 -132 -31 -132 -42 0 -5 8 -7 18 -4 9 3 44 6 77 7 33 1 77
8 98 15 20 7 37 9 37 5 0 -8 -77 -41 -97 -41 -6 0 -13 -7 -16 -14 -4 -11 -1
-13 11 -9 15 6 15 5 3 -11 -14 -16 -12 -17 25 -11 21 4 43 11 48 15 5 5 15 6
22 3 8 -3 28 0 45 6 17 6 36 8 42 4 12 -8 -60 -35 -153 -58 -48 -12 -67 -20
-58 -26 9 -6 5 -9 -13 -9 -18 0 -29 -8 -37 -25 -6 -14 -20 -25 -29 -25 -14 0
-15 -2 -4 -9 8 -5 27 -5 45 0 17 5 31 9 32 9 0 0 1 -7 1 -15 0 -8 -3 -12 -7
-10 -3 2 -18 -2 -33 -10 -14 -7 -28 -11 -31 -7 -3 3 -6 0 -6 -6 0 -7 5 -12 10
-12 6 0 10 -10 11 -22 0 -22 1 -22 9 -3 8 19 9 19 9 -2 1 -13 6 -23 12 -23 7
0 9 -10 7 -24 -4 -19 -1 -22 14 -18 14 3 16 8 8 17 -8 10 -8 15 1 21 7 4 9 3
5 -4 -8 -13 5 -21 38 -24 29 -3 26 -10 -6 -15 -12 -2 -26 -9 -30 -16 -4 -6 -8
-7 -8 -2 0 6 -4 3 -9 -4 -16 -25 21 -78 44 -63 5 4 24 8 40 9 17 1 44 4 60 8
25 4 26 4 10 -5 -34 -17 -80 -33 -87 -32 -5 1 -8 -3 -8 -8 0 -12 -2 -12 38 -1
20 6 30 6 27 0 -4 -5 -13 -9 -21 -9 -15 0 -19 -15 -6 -23 4 -2 1 -2 -5 -1 -7
2 -13 -3 -13 -11 0 -8 -6 -15 -13 -15 -7 0 -14 -11 -15 -26 -1 -17 2 -23 10
-18 17 11 50 13 67 4 7 -4 -31 -16 -90 -28 -189 -38 -174 -38 -207 7 -16 22
-44 74 -63 116 -18 41 -35 75 -39 75 -3 0 -34 -27 -68 -59 -34 -32 -62 -55
-62 -51 0 10 42 54 93 98 25 21 37 38 33 48 -5 13 -13 10 -45 -15 -84 -67
-148 -163 -137 -207 12 -45 58 -59 196 -59 210 0 282 11 518 81 45 13 121 36
170 50 156 46 293 101 522 209 316 149 528 274 713 422 37 30 67 51 67 48 0
-11 61 36 106 82 35 35 43 49 42 76 -1 34 -23 76 -34 65 -3 -4 -14 2 -24 12
-25 25 -110 34 -229 26 -96 -7 -191 -23 -191 -32 0 -3 5 -14 10 -25 13 -23 65
-26 74 -4 3 10 17 14 38 14 30 -2 31 -2 6 -6 -16 -2 -28 -9 -28 -15 0 -5 8 -7
17 -4 10 4 64 4 121 0 128 -8 151 -22 133 -76 -15 -47 -100 -140 -193 -211
-84 -63 -116 -78 -47 -20 67 56 129 124 149 164 15 29 17 40 7 60 -19 38 -54
49 -155 49 -84 0 -93 -2 -90 -17 3 -15 17 -19 78 -24 l75 -5 -67 -2 c-38 -1
-68 -4 -68 -5 0 -2 9 -29 19 -60 11 -31 23 -76 26 -101 6 -38 4 -46 -13 -55
-28 -15 -32 -14 -30 7 3 36 -2 73 -9 69 -5 -3 -9 9 -10 26 -2 18 -10 37 -18
43 -9 7 -15 16 -14 20 4 24 -3 25 -26 4 -27 -26 -33 -17 -10 14 17 22 20 76 5
76 -5 0 -10 9 -10 20 0 27 -40 88 -62 96 -10 3 -21 16 -24 30 -3 13 -10 21
-15 18 -5 -3 -6 3 -2 12 5 13 3 16 -10 11 -17 -6 -42 24 -30 37 3 3 -1 6 -11
6 -9 0 -15 4 -12 9 3 5 -1 11 -9 15 -8 3 -15 1 -15 -4 0 -6 -7 -10 -15 -10
-18 0 -19 12 -3 28 9 9 8 12 -6 12 -10 0 -14 4 -10 12 4 6 3 8 -4 4 -6 -3 -26
2 -44 12 -18 10 -39 17 -45 15 -7 -3 -13 3 -13 14 0 15 -2 16 -10 3 -8 -13
-10 -12 -10 3 0 9 -3 17 -7 18 -5 0 -19 2 -32 3 -13 2 -30 11 -37 21 -8 11
-14 16 -14 12 0 -4 -18 0 -40 9 -22 9 -49 14 -60 11 -12 -3 -24 1 -29 10 -6
12 -17 14 -40 10 -21 -4 -30 -3 -28 5 3 15 -23 18 -40 5 -7 -5 -13 -6 -13 -1
0 5 -36 9 -79 9 -44 0 -77 -3 -75 -7 8 -12 -20 -10 -32 2 -7 7 -19 4 -36 -10z
m32 1 c0 -5 -7 -12 -16 -15 -14 -5 -15 -4 -4 9 14 17 20 19 20 6z m-303 -197
c-3 -3 -12 -4 -19 -1 -8 3 -5 6 6 6 11 1 17 -2 13 -5z m-46 -103 c-7 -5 -17
-15 -22 -22 -6 -10 -9 -8 -9 9 0 16 6 22 23 22 16 0 18 -3 8 -9z m-138 -188
c-7 -2 -19 -2 -25 0 -7 3 -2 5 12 5 14 0 19 -2 13 -5z m187 -823 c-8 -5 -22
-10 -30 -10 -13 0 -13 1 0 10 8 5 22 10 30 10 13 0 13 -1 0 -10z"/>
<path d="M1930 14709 c0 -5 5 -7 10 -4 6 3 10 8 10 11 0 2 -4 4 -10 4 -5 0
-10 -5 -10 -11z"/>
<path d="M3190 14465 c-171 -19 -278 -41 -264 -55 5 -5 50 -1 99 7 113 19 316
22 371 6 122 -38 124 -131 5 -257 -35 -37 -200 -175 -271 -227 -173 -126 -520
-321 -770 -431 -202 -90 -522 -194 -730 -237 -252 -53 -411 -73 -535 -68 -138
6 -186 21 -216 70 -25 40 -20 102 15 161 35 60 157 179 264 258 50 38 92 76
92 84 0 12 -4 13 -22 3 -71 -37 -285 -205 -334 -262 -54 -61 -103 -142 -115
-187 -16 -60 4 -105 63 -142 69 -43 124 -52 277 -45 162 8 313 32 528 86 347
87 585 168 788 266 61 30 144 69 185 87 94 43 389 213 493 284 197 135 394
319 435 406 35 74 36 101 7 136 -51 61 -168 79 -365 57z"/>
<path d="M3200 14059 c-72 -56 -105 -87 -50 -48 132 94 138 99 125 98 -6 0
-39 -23 -75 -50z"/>
<path d="M1540 14050 c0 -5 5 -10 11 -10 5 0 7 5 4 10 -3 6 -8 10 -11 10 -2 0
-4 -4 -4 -10z"/>
<path d="M3075 13964 l-30 -26 33 22 c17 12 32 23 32 26 0 7 -4 5 -35 -22z"/>
<path d="M1548 13888 c9 -9 15 -9 24 0 9 9 7 12 -12 12 -19 0 -21 -3 -12 -12z"/>
<path d="M1488 13883 c7 -3 16 -2 19 1 4 3 -2 6 -13 5 -11 0 -14 -3 -6 -6z"/>
<path d="M1510 13821 c0 -7 -4 -10 -8 -7 -4 2 -14 0 -22 -6 -12 -8 -12 -9 3
-4 10 3 17 0 17 -7 0 -7 5 -4 11 6 6 10 8 21 5 24 -3 4 -6 1 -6 -6z"/>
<path d="M2580 13667 c-95 -47 -226 -107 -235 -107 -3 0 -25 -8 -48 -19 -59
-26 -174 -71 -182 -71 -7 0 -53 -19 -110 -45 -37 -17 -293 -100 -358 -116 -26
-6 -46 -14 -43 -16 7 -7 122 17 236 49 263 73 709 253 749 302 7 9 18 13 24 9
6 -3 7 -1 3 5 -4 7 9 19 31 31 73 39 16 20 -67 -22z"/>
<path d="M1261 13684 c0 -11 3 -14 6 -6 3 7 2 16 -1 19 -3 4 -6 -2 -5 -13z"/>
<path d="M1231 13667 c-13 -21 -12 -21 5 -5 10 10 16 20 13 22 -3 3 -11 -5
-18 -17z"/>
<path d="M1525 13560 c3 -5 11 -10 16 -10 6 0 7 5 4 10 -3 6 -11 10 -16 10 -6
0 -7 -4 -4 -10z"/>
<path d="M1448 13323 c6 -2 18 -2 25 0 6 3 1 5 -13 5 -14 0 -19 -2 -12 -5z"/>
<path d="M1383 13313 c9 -2 25 -2 35 0 9 3 1 5 -18 5 -19 0 -27 -2 -17 -5z"/>
<path d="M1178 13273 c7 -3 16 -2 19 1 4 3 -2 6 -13 5 -11 0 -14 -3 -6 -6z"/>
<path d="M7520 13809 c-13 -10 -13 -10 0 -6 9 3 25 -2 35 -10 15 -12 16 -14 3
-10 -23 8 -30 -3 -12 -20 8 -9 18 -13 21 -10 10 10 12 57 2 51 -5 -3 -9 0 -9
5 0 14 -21 14 -40 0z"/>
<path d="M1890 13130 c0 -5 5 -10 10 -10 6 0 10 5 10 10 0 6 -4 10 -10 10 -5
0 -10 -4 -10 -10z"/>
<path d="M5380 10700 c-23 -18 -24 -19 -3 -14 12 3 24 12 27 20 7 18 6 18 -24
-6z"/>
<path d="M4230 9535 c-7 -9 -11 -17 -9 -20 3 -2 10 5 17 15 14 24 10 26 -8 5z"/>
<path d="M1820 8122 c0 -15 2 -15 10 -2 7 12 9 10 7 -7 -1 -19 -3 -20 -17 -9
-8 7 -21 11 -29 8 -9 -3 -11 0 -6 8 6 9 4 11 -4 6 -7 -5 -10 -14 -7 -22 3 -8
1 -14 -4 -14 -6 0 -10 8 -10 18 0 14 -2 15 -10 2 -6 -10 -10 -11 -10 -2 0 18
-21 15 -36 -5 -9 -12 -13 -14 -14 -5 0 10 -3 10 -15 -2 -8 -8 -15 -19 -15 -25
0 -14 60 18 60 32 0 7 4 6 9 -3 13 -21 2 -67 -17 -74 -10 -3 -23 -9 -31 -12
-10 -5 -12 -2 -8 9 11 29 -17 40 -59 22 -20 -8 -34 -18 -31 -22 4 -3 12 -2 19
4 19 14 60 14 55 0 -2 -7 -16 -12 -31 -13 -26 -1 -51 -14 -27 -14 7 0 9 -5 6
-10 -4 -6 -11 -8 -16 -5 -16 10 -33 -6 -18 -17 11 -7 9 -8 -5 -6 -10 2 -21 -3
-24 -11 -3 -8 0 -11 7 -7 8 5 8 0 -1 -18 -6 -14 -15 -26 -19 -26 -4 0 -10 -7
-13 -16 -4 -9 -2 -13 5 -8 7 4 10 1 7 -7 -3 -8 -10 -15 -16 -15 -7 -1 -14 -3
-17 -4 -3 -1 -10 -3 -17 -4 -6 0 -13 -6 -15 -12 -2 -7 11 -9 42 -4 25 4 45 4
46 1 0 -3 5 3 10 14 8 19 9 19 6 1 -1 -11 -11 -21 -22 -23 -41 -7 -71 -12 -90
-13 -14 -1 -10 -5 14 -14 18 -6 39 -20 46 -30 8 -11 19 -15 26 -10 7 4 10 3 6
-3 -4 -6 0 -14 9 -17 24 -9 27 -7 14 9 -11 13 -10 14 3 9 22 -8 39 30 32 73
-3 19 -7 39 -10 43 -5 8 27 21 60 23 22 2 65 -36 65 -59 0 -7 -3 -14 -8 -14
-13 0 -45 -67 -38 -79 10 -15 -7 -14 -23 2 -11 10 -11 8 -1 -12 11 -22 11 -23
-6 -17 -10 4 -15 4 -12 0 4 -3 -4 -21 -17 -39 -14 -17 -25 -36 -25 -42 0 -5
-11 -16 -25 -23 -14 -7 -25 -17 -25 -22 0 -4 -7 -8 -16 -8 -8 0 -13 -4 -10 -9
3 -5 -5 -12 -18 -15 -14 -3 -28 -15 -31 -26 -3 -11 -10 -20 -14 -20 -14 0 -85
-61 -97 -82 -10 -18 -12 -18 -37 16 -16 21 -33 33 -41 30 -8 -3 -25 2 -39 11
-23 15 -71 15 -85 0 -3 -3 -7 -24 -7 -45 -1 -27 -8 -46 -23 -61 -12 -11 -20
-25 -17 -30 4 -5 1 -25 -5 -45 -12 -35 -11 -37 29 -75 22 -21 47 -39 56 -39 8
0 15 -5 15 -11 0 -6 -7 -8 -16 -5 -13 5 -15 2 -11 -14 4 -15 0 -21 -16 -24
-43 -9 -63 -3 -104 31 -45 36 -54 64 -33 103 8 15 6 21 -7 29 -14 8 -15 10 -3
11 9 0 11 3 4 8 -5 4 -14 22 -20 41 -6 24 -16 35 -32 37 -18 3 -22 -1 -22 -22
0 -14 -4 -23 -10 -19 -5 3 -7 12 -3 20 3 8 0 15 -6 15 -6 0 -11 -7 -11 -16 0
-8 -4 -12 -10 -9 -15 9 -12 -8 6 -33 14 -20 14 -22 0 -22 -19 0 -21 -11 -4
-28 8 -8 8 -15 -2 -26 -7 -9 -10 -22 -7 -30 3 -8 1 -17 -6 -20 -7 -2 -7 -5 -2
-5 6 -1 10 -17 9 -36 -1 -19 1 -35 5 -35 4 0 7 -9 7 -19 0 -11 -4 -17 -8 -15
-4 3 -8 0 -8 -5 0 -11 11 -14 40 -12 10 0 11 -1 3 -5 -7 -3 -13 -12 -13 -20 0
-8 -4 -14 -10 -14 -5 0 -10 -5 -10 -11 0 -6 8 -8 18 -5 15 5 15 5 2 -6 -17
-14 -15 -52 2 -41 8 4 9 0 4 -12 -4 -10 0 -28 10 -43 9 -13 11 -21 5 -18 -16
10 -13 -10 3 -24 8 -6 13 -17 10 -25 -3 -7 5 -20 17 -29 13 -8 20 -18 16 -22
-8 -8 17 -34 33 -34 6 0 8 -4 5 -10 -3 -5 -1 -10 5 -10 6 0 8 -4 5 -10 -3 -5
1 -10 9 -10 8 0 18 -9 21 -20 3 -11 11 -20 16 -20 6 0 7 -4 4 -10 -3 -5 -2
-10 4 -10 5 0 13 -9 16 -20 3 -11 13 -20 20 -20 8 0 21 -13 30 -30 9 -16 20
-30 25 -30 5 0 15 -6 22 -13 25 -24 78 -58 78 -50 0 4 4 3 8 -3 11 -17 137
-64 141 -53 1 6 9 2 17 -8 11 -14 15 -15 22 -5 7 11 17 9 51 -9 34 -17 64 -22
169 -27 121 -4 134 -3 242 27 342 95 588 358 661 706 7 33 13 119 13 190 1
140 -16 220 -68 339 -25 56 -110 176 -125 176 -5 0 -21 18 -36 39 -16 25 -32
38 -41 34 -8 -3 -14 0 -14 7 0 8 -9 11 -24 8 -17 -4 -23 -1 -19 9 3 8 -2 14
-13 14 -73 6 -87 8 -96 17 -11 11 1 44 13 36 5 -3 7 -9 4 -14 -3 -5 -2 -11 3
-14 4 -2 9 8 10 24 2 32 -27 56 -54 46 -9 -3 -12 -1 -9 4 3 6 2 10 -3 10 -5 0
-19 9 -32 20 -14 12 -31 18 -41 15 -10 -3 -32 1 -49 10 -18 9 -38 14 -45 12
-7 -3 -18 0 -25 6 -10 9 -14 9 -17 -1 -4 -9 -8 -10 -18 -2 -9 8 -17 7 -28 -4
-8 -8 -17 -12 -21 -9 -3 3 2 11 11 18 14 10 11 12 -16 13 -23 0 -31 -4 -31
-16z m10 -54 c0 -4 -4 -8 -9 -8 -6 0 -12 4 -15 8 -3 5 1 9 9 9 8 0 15 -4 15
-9z m0 -58 c0 -5 -4 -10 -10 -10 -5 0 -10 5 -10 10 0 6 5 10 10 10 6 0 10 -4
10 -10z m-18 -16 c3 -3 4 -13 1 -23 -3 -13 -11 -17 -29 -13 -27 5 -30 12 -12
30 13 13 31 16 40 6z m-189 -35 c-4 -12 0 -25 8 -30 11 -6 11 -9 1 -9 -16 0
-26 25 -18 45 8 23 15 18 9 -6z m514 -10 c2 -16 1 -18 -11 -7 -7 7 -11 19 -9
26 7 16 16 8 20 -19z m-450 5 c-3 -3 -12 -4 -19 -1 -8 3 -5 6 6 6 11 1 17 -2
13 -5z m36 -33 c-2 -6 0 -10 5 -8 4 1 8 -2 10 -8 5 -21 -21 -9 -29 13 -7 17
-6 22 4 19 6 -2 11 -10 10 -16z m-103 -15 c0 -3 -4 -8 -10 -11 -5 -3 -10 -1
-10 4 0 6 5 11 10 11 6 0 10 -2 10 -4z m-56 -14 c3 -5 -1 -9 -9 -9 -8 0 -12 4
-9 9 3 4 7 8 9 8 2 0 6 -4 9 -8z m521 -67 c22 -8 34 -14 27 -15 -7 0 -11 -4
-8 -8 3 -5 -1 -9 -9 -9 -8 0 -12 3 -10 7 2 4 -2 7 -9 7 -7 0 -12 -10 -10 -23
2 -20 -1 -22 -19 -14 -12 5 -31 11 -42 15 -18 5 -17 8 10 30 17 13 30 24 30
24 0 1 18 -6 40 -14z m15 -95 c0 -5 -2 -10 -4 -10 -3 0 -8 5 -11 10 -3 6 -1
10 4 10 6 0 11 -4 11 -10z m-1184 -557 c-10 -10 -19 5 -10 18 6 11 8 11 12 0
2 -7 1 -15 -2 -18z m585 -120 c16 -10 29 -26 29 -36 0 -10 4 -16 9 -12 6 3 15
-3 20 -13 9 -16 7 -19 -9 -18 -11 0 -19 -3 -19 -9 1 -5 5 -9 10 -7 5 1 9 -5 9
-14 0 -8 5 -12 10 -9 6 3 10 -3 10 -14 0 -11 -5 -23 -10 -26 -8 -5 -7 -12 2
-23 11 -13 10 -14 -9 -4 -16 9 -23 9 -26 -1 -3 -7 -6 -5 -6 6 -1 9 4 17 9 17
13 0 13 37 0 45 -12 7 -30 -34 -23 -52 3 -7 -2 -13 -12 -13 -10 0 -13 5 -9 12
4 7 3 8 -5 4 -6 -4 -9 -12 -6 -17 3 -5 -1 -6 -9 -3 -11 4 -16 0 -16 -11 0 -9
4 -14 9 -10 6 3 9 -4 8 -15 -1 -22 -13 -27 -20 -7 -3 8 -10 6 -23 -7 -15 -16
-16 -17 -1 -7 11 9 17 10 17 3 0 -6 -9 -16 -20 -22 -15 -8 -20 -8 -20 1 0 7
-3 9 -6 6 -4 -4 -1 -14 6 -22 11 -13 11 -18 0 -28 -10 -9 -11 -9 -6 1 5 7 1
12 -9 12 -9 0 -13 -5 -9 -11 4 -8 0 -8 -15 0 -24 13 -51 61 -51 89 0 10 -11
40 -25 66 -24 44 -24 46 -5 46 12 0 25 11 32 25 6 14 15 25 19 25 4 0 22 13
40 30 29 26 48 35 87 39 8 0 27 -7 43 -16z m87 -118 c-3 -3 -9 2 -12 12 -6 14
-5 15 5 6 7 -7 10 -15 7 -18z m-66 -87 c14 3 19 1 14 -6 -3 -6 -15 -9 -26 -7
-11 2 -20 0 -20 -6 0 -5 5 -9 10 -9 6 0 10 -4 10 -8 0 -5 -7 -9 -15 -9 -9 0
-15 9 -15 22 0 23 13 42 18 27 2 -6 12 -7 24 -4z m-78 -77 c-21 -21 -29 -19
-21 4 4 8 14 15 23 15 16 0 16 -2 -2 -19z m46 9 c0 -5 -2 -10 -4 -10 -3 0 -8
5 -11 10 -3 6 -1 10 4 10 6 0 11 -4 11 -10z"/>
<path d="M1658 8123 c7 -3 16 -2 19 1 4 3 -2 6 -13 5 -11 0 -14 -3 -6 -6z"/>
<path d="M1577 8067 c-9 -11 -17 -29 -17 -40 0 -10 -4 -15 -10 -12 -5 3 -15 3
-21 -1 -8 -4 -7 -9 2 -15 10 -6 11 -9 2 -9 -7 0 -13 -5 -13 -12 0 -6 7 -4 18
5 10 10 24 17 31 17 8 0 10 7 6 20 -7 22 11 53 26 44 5 -3 17 0 26 6 17 11 16
11 -1 5 -11 -3 -22 -1 -25 4 -4 5 -14 0 -24 -12z"/>
<path d="M1544 8066 c-3 -9 -12 -16 -20 -16 -8 0 -14 -4 -14 -10 0 -5 6 -9 13
-7 15 3 41 36 33 44 -3 3 -8 -2 -12 -11z"/>
<path d="M1680 8057 c0 -19 10 -27 26 -20 21 8 17 33 -6 33 -11 0 -20 -6 -20
-13z"/>
<path d="M1520 7919 c0 -5 5 -7 10 -4 6 3 10 8 10 11 0 2 -4 4 -10 4 -5 0 -10
-5 -10 -11z"/>
<path d="M1006 7497 c3 -10 9 -15 12 -12 3 3 0 11 -7 18 -10 9 -11 8 -5 -6z"/>
<path d="M980 7460 c0 -5 -10 -10 -22 -10 -13 0 -18 -3 -12 -8 6 -4 13 -14 16
-22 3 -10 10 -5 22 18 9 17 12 32 6 32 -5 0 -10 -4 -10 -10z"/>
<path d="M915 7410 c4 -6 11 -8 16 -5 14 9 11 15 -7 15 -8 0 -12 -5 -9 -10z"/>
<path d="M7335 4780 c3 -5 10 -10 16 -10 5 0 9 5 9 10 0 6 -7 10 -16 10 -8 0
-12 -4 -9 -10z"/>
<path d="M7305 4750 c-3 -6 1 -7 9 -4 18 7 21 14 7 14 -6 0 -13 -4 -16 -10z"/>
<path d="M7230 4660 c0 -5 5 -10 10 -10 6 0 10 5 10 10 0 6 -4 10 -10 10 -5 0
-10 -4 -10 -10z"/>
<path d="M7185 4610 c-3 -6 1 -7 9 -4 18 7 21 14 7 14 -6 0 -13 -4 -16 -10z"/>
<path d="M7125 4580 c-3 -5 -1 -10 4 -10 6 0 11 5 11 10 0 6 -2 10 -4 10 -3 0
-8 -4 -11 -10z"/>
<path d="M7176 4551 c-3 -5 3 -11 15 -14 16 -4 18 -3 8 9 -13 16 -16 17 -23 5z"/>
<path d="M7078 4483 c7 -3 16 -2 19 1 4 3 -2 6 -13 5 -11 0 -14 -3 -6 -6z"/>
<path d="M6988 4358 c5 -5 16 -8 23 -6 8 3 3 7 -10 11 -17 4 -21 3 -13 -5z"/>
<path d="M6915 4200 c4 -7 -3 -8 -21 -4 -19 5 -25 4 -20 -5 4 -6 2 -11 -5 -11
-7 0 -10 -3 -6 -6 3 -3 12 -2 19 2 7 5 22 8 32 9 23 0 34 25 11 25 -9 0 -13
-5 -10 -10z"/>
<path d="M6830 3939 c0 -5 5 -7 10 -4 6 3 10 8 10 11 0 2 -4 4 -10 4 -5 0 -10
-5 -10 -11z"/>
<path d="M6850 3816 c0 -2 7 -7 16 -10 8 -3 12 -2 9 4 -6 10 -25 14 -25 6z"/>
<path d="M6500 3741 c-189 -107 -327 -228 -381 -332 -47 -93 -2 -135 186 -175
80 -17 469 -31 478 -18 3 5 -74 9 -176 10 -203 1 -341 23 -419 66 -40 22 -43
27 -42 65 0 29 10 55 30 84 45 66 176 173 295 242 72 41 108 68 109 80 0 22
-4 21 -80 -22z"/>
<path d="M6830 3776 c0 -2 7 -6 15 -10 8 -3 15 -1 15 4 0 6 -7 10 -15 10 -8 0
-15 -2 -15 -4z"/>
<path d="M6790 3640 c0 -5 5 -10 11 -10 5 0 7 5 4 10 -3 6 -8 10 -11 10 -2 0
-4 -4 -4 -10z"/>
<path d="M6775 3600 c-3 -5 -3 -10 2 -10 4 0 19 -3 33 -6 24 -6 25 -6 5 9 -24
19 -32 21 -40 7z"/>
<path d="M8415 3540 c-3 -6 1 -7 9 -4 18 7 21 14 7 14 -6 0 -13 -4 -16 -10z"/>
<path d="M6130 3195 c0 -8 2 -15 4 -15 2 0 6 7 10 15 3 8 1 15 -4 15 -6 0 -10
-7 -10 -15z"/>
<path d="M6323 3156 c10 -8 41 -14 69 -14 64 0 43 14 -32 21 -47 5 -52 4 -37
-7z"/>
<path d="M2600 4471 c0 -17 18 -21 24 -6 3 9 0 15 -9 15 -8 0 -15 -4 -15 -9z"/>
<path d="M2428 4313 c-5 -24 1 -53 12 -53 18 0 32 40 19 56 -15 19 -26 18 -31
-3z"/>
<path d="M8550 1700 c-9 -6 -10 -10 -3 -10 6 0 15 5 18 10 8 12 4 12 -15 0z"/>
</g>
</svg>
